<?xml version="1.0" standalone="no"?>
<!DOCTYPE svg PUBLIC "-//W3C//DTD SVG 1.1//EN" "http://www.w3.org/Graphics/SVG/1.1/DTD/svg11.dtd" >
<svg xmlns="http://www.w3.org/2000/svg" xmlns:xlink="http://www.w3.org/1999/xlink" version="1.1">
<metadata></metadata>
<defs>
<font id="albretregular" horiz-adv-x="3739" >
<font-face units-per-em="2048" ascent="1638" descent="-410" />
<missing-glyph horiz-adv-x="696" />
<glyph horiz-adv-x="0" />
<glyph horiz-adv-x="682" />
<glyph unicode=" "  horiz-adv-x="696" />
<glyph unicode="&#x09;" horiz-adv-x="696" />
<glyph unicode="&#xa0;" horiz-adv-x="696" />
<glyph unicode="!" d="M72 37v1364h3608v-1364h-3608zM256 223h3238v994h-3238v-994zM473 393v647h297q86 0 141 -24q51 -23 90 -68q16 -23 29.5 -49.5t22.5 -54.5q16 -61 16 -125q0 -104 -25 -162q-25 -57 -65 -96q-23 -18 -44.5 -31.5t-45.5 -19.5q-33 -10 -62.5 -13.5t-56.5 -3.5h-297z M672 539h49q33 0 54.5 4t35.5 10q27 16 41 49q14 31 14 113q0 102 -32 141q-35 37 -111 37h-51v-354zM1174 393v647h534v-139h-334v-102h312v-133h-312v-127h344v-146h-544zM1825 393v647h262l102 -395l101 395h262v-647h-164v494l-125 -494h-149l-125 494v-494h-164z M2654 715q0 156 88 248q88 88 246 88q164 0 250 -86q88 -92 88 -244q0 -115 -39 -186q-37 -72 -111 -113q-72 -41 -180 -41q-106 0 -180 35q-70 35 -117 110q-45 76 -45 189zM2855 715q0 -98 37 -142q37 -43 98 -43q63 0 100 43q35 41 35 150q0 92 -37 133q-37 43 -100 43 q-59 0 -96 -43t-37 -141z" />
<glyph unicode="&#x22;" d="M72 37v1364h3608v-1364h-3608zM256 223h3238v994h-3238v-994zM473 393v647h297q86 0 141 -24q51 -23 90 -68q16 -23 29.5 -49.5t22.5 -54.5q16 -61 16 -125q0 -104 -25 -162q-25 -57 -65 -96q-23 -18 -44.5 -31.5t-45.5 -19.5q-33 -10 -62.5 -13.5t-56.5 -3.5h-297z M672 539h49q33 0 54.5 4t35.5 10q27 16 41 49q14 31 14 113q0 102 -32 141q-35 37 -111 37h-51v-354zM1174 393v647h534v-139h-334v-102h312v-133h-312v-127h344v-146h-544zM1825 393v647h262l102 -395l101 395h262v-647h-164v494l-125 -494h-149l-125 494v-494h-164z M2654 715q0 156 88 248q88 88 246 88q164 0 250 -86q88 -92 88 -244q0 -115 -39 -186q-37 -72 -111 -113q-72 -41 -180 -41q-106 0 -180 35q-70 35 -117 110q-45 76 -45 189zM2855 715q0 -98 37 -142q37 -43 98 -43q63 0 100 43q35 41 35 150q0 92 -37 133q-37 43 -100 43 q-59 0 -96 -43t-37 -141z" />
<glyph unicode="%" d="M72 37v1364h3608v-1364h-3608zM256 223h3238v994h-3238v-994zM473 393v647h297q86 0 141 -24q51 -23 90 -68q16 -23 29.5 -49.5t22.5 -54.5q16 -61 16 -125q0 -104 -25 -162q-25 -57 -65 -96q-23 -18 -44.5 -31.5t-45.5 -19.5q-33 -10 -62.5 -13.5t-56.5 -3.5h-297z M672 539h49q33 0 54.5 4t35.5 10q27 16 41 49q14 31 14 113q0 102 -32 141q-35 37 -111 37h-51v-354zM1174 393v647h534v-139h-334v-102h312v-133h-312v-127h344v-146h-544zM1825 393v647h262l102 -395l101 395h262v-647h-164v494l-125 -494h-149l-125 494v-494h-164z M2654 715q0 156 88 248q88 88 246 88q164 0 250 -86q88 -92 88 -244q0 -115 -39 -186q-37 -72 -111 -113q-72 -41 -180 -41q-106 0 -180 35q-70 35 -117 110q-45 76 -45 189zM2855 715q0 -98 37 -142q37 -43 98 -43q63 0 100 43q35 41 35 150q0 92 -37 133q-37 43 -100 43 q-59 0 -96 -43t-37 -141z" />
<glyph unicode="&#x26;" d="M72 37v1364h3608v-1364h-3608zM256 223h3238v994h-3238v-994zM473 393v647h297q86 0 141 -24q51 -23 90 -68q16 -23 29.5 -49.5t22.5 -54.5q16 -61 16 -125q0 -104 -25 -162q-25 -57 -65 -96q-23 -18 -44.5 -31.5t-45.5 -19.5q-33 -10 -62.5 -13.5t-56.5 -3.5h-297z M672 539h49q33 0 54.5 4t35.5 10q27 16 41 49q14 31 14 113q0 102 -32 141q-35 37 -111 37h-51v-354zM1174 393v647h534v-139h-334v-102h312v-133h-312v-127h344v-146h-544zM1825 393v647h262l102 -395l101 395h262v-647h-164v494l-125 -494h-149l-125 494v-494h-164z M2654 715q0 156 88 248q88 88 246 88q164 0 250 -86q88 -92 88 -244q0 -115 -39 -186q-37 -72 -111 -113q-72 -41 -180 -41q-106 0 -180 35q-70 35 -117 110q-45 76 -45 189zM2855 715q0 -98 37 -142q37 -43 98 -43q63 0 100 43q35 41 35 150q0 92 -37 133q-37 43 -100 43 q-59 0 -96 -43t-37 -141z" />
<glyph unicode="'" d="M72 37v1364h3608v-1364h-3608zM256 223h3238v994h-3238v-994zM473 393v647h297q86 0 141 -24q51 -23 90 -68q16 -23 29.5 -49.5t22.5 -54.5q16 -61 16 -125q0 -104 -25 -162q-25 -57 -65 -96q-23 -18 -44.5 -31.5t-45.5 -19.5q-33 -10 -62.5 -13.5t-56.5 -3.5h-297z M672 539h49q33 0 54.5 4t35.5 10q27 16 41 49q14 31 14 113q0 102 -32 141q-35 37 -111 37h-51v-354zM1174 393v647h534v-139h-334v-102h312v-133h-312v-127h344v-146h-544zM1825 393v647h262l102 -395l101 395h262v-647h-164v494l-125 -494h-149l-125 494v-494h-164z M2654 715q0 156 88 248q88 88 246 88q164 0 250 -86q88 -92 88 -244q0 -115 -39 -186q-37 -72 -111 -113q-72 -41 -180 -41q-106 0 -180 35q-70 35 -117 110q-45 76 -45 189zM2855 715q0 -98 37 -142q37 -43 98 -43q63 0 100 43q35 41 35 150q0 92 -37 133q-37 43 -100 43 q-59 0 -96 -43t-37 -141z" />
<glyph unicode="(" d="M72 37v1364h3608v-1364h-3608zM256 223h3238v994h-3238v-994zM473 393v647h297q86 0 141 -24q51 -23 90 -68q16 -23 29.5 -49.5t22.5 -54.5q16 -61 16 -125q0 -104 -25 -162q-25 -57 -65 -96q-23 -18 -44.5 -31.5t-45.5 -19.5q-33 -10 -62.5 -13.5t-56.5 -3.5h-297z M672 539h49q33 0 54.5 4t35.5 10q27 16 41 49q14 31 14 113q0 102 -32 141q-35 37 -111 37h-51v-354zM1174 393v647h534v-139h-334v-102h312v-133h-312v-127h344v-146h-544zM1825 393v647h262l102 -395l101 395h262v-647h-164v494l-125 -494h-149l-125 494v-494h-164z M2654 715q0 156 88 248q88 88 246 88q164 0 250 -86q88 -92 88 -244q0 -115 -39 -186q-37 -72 -111 -113q-72 -41 -180 -41q-106 0 -180 35q-70 35 -117 110q-45 76 -45 189zM2855 715q0 -98 37 -142q37 -43 98 -43q63 0 100 43q35 41 35 150q0 92 -37 133q-37 43 -100 43 q-59 0 -96 -43t-37 -141z" />
<glyph unicode=")" d="M72 37v1364h3608v-1364h-3608zM256 223h3238v994h-3238v-994zM473 393v647h297q86 0 141 -24q51 -23 90 -68q16 -23 29.5 -49.5t22.5 -54.5q16 -61 16 -125q0 -104 -25 -162q-25 -57 -65 -96q-23 -18 -44.5 -31.5t-45.5 -19.5q-33 -10 -62.5 -13.5t-56.5 -3.5h-297z M672 539h49q33 0 54.5 4t35.5 10q27 16 41 49q14 31 14 113q0 102 -32 141q-35 37 -111 37h-51v-354zM1174 393v647h534v-139h-334v-102h312v-133h-312v-127h344v-146h-544zM1825 393v647h262l102 -395l101 395h262v-647h-164v494l-125 -494h-149l-125 494v-494h-164z M2654 715q0 156 88 248q88 88 246 88q164 0 250 -86q88 -92 88 -244q0 -115 -39 -186q-37 -72 -111 -113q-72 -41 -180 -41q-106 0 -180 35q-70 35 -117 110q-45 76 -45 189zM2855 715q0 -98 37 -142q37 -43 98 -43q63 0 100 43q35 41 35 150q0 92 -37 133q-37 43 -100 43 q-59 0 -96 -43t-37 -141z" />
<glyph unicode="*" d="M72 37v1364h3608v-1364h-3608zM256 223h3238v994h-3238v-994zM473 393v647h297q86 0 141 -24q51 -23 90 -68q16 -23 29.5 -49.5t22.5 -54.5q16 -61 16 -125q0 -104 -25 -162q-25 -57 -65 -96q-23 -18 -44.5 -31.5t-45.5 -19.5q-33 -10 -62.5 -13.5t-56.5 -3.5h-297z M672 539h49q33 0 54.5 4t35.5 10q27 16 41 49q14 31 14 113q0 102 -32 141q-35 37 -111 37h-51v-354zM1174 393v647h534v-139h-334v-102h312v-133h-312v-127h344v-146h-544zM1825 393v647h262l102 -395l101 395h262v-647h-164v494l-125 -494h-149l-125 494v-494h-164z M2654 715q0 156 88 248q88 88 246 88q164 0 250 -86q88 -92 88 -244q0 -115 -39 -186q-37 -72 -111 -113q-72 -41 -180 -41q-106 0 -180 35q-70 35 -117 110q-45 76 -45 189zM2855 715q0 -98 37 -142q37 -43 98 -43q63 0 100 43q35 41 35 150q0 92 -37 133q-37 43 -100 43 q-59 0 -96 -43t-37 -141z" />
<glyph unicode="+" d="M72 37v1364h3608v-1364h-3608zM256 223h3238v994h-3238v-994zM473 393v647h297q86 0 141 -24q51 -23 90 -68q16 -23 29.5 -49.5t22.5 -54.5q16 -61 16 -125q0 -104 -25 -162q-25 -57 -65 -96q-23 -18 -44.5 -31.5t-45.5 -19.5q-33 -10 -62.5 -13.5t-56.5 -3.5h-297z M672 539h49q33 0 54.5 4t35.5 10q27 16 41 49q14 31 14 113q0 102 -32 141q-35 37 -111 37h-51v-354zM1174 393v647h534v-139h-334v-102h312v-133h-312v-127h344v-146h-544zM1825 393v647h262l102 -395l101 395h262v-647h-164v494l-125 -494h-149l-125 494v-494h-164z M2654 715q0 156 88 248q88 88 246 88q164 0 250 -86q88 -92 88 -244q0 -115 -39 -186q-37 -72 -111 -113q-72 -41 -180 -41q-106 0 -180 35q-70 35 -117 110q-45 76 -45 189zM2855 715q0 -98 37 -142q37 -43 98 -43q63 0 100 43q35 41 35 150q0 92 -37 133q-37 43 -100 43 q-59 0 -96 -43t-37 -141z" />
<glyph unicode="," d="M72 37v1364h3608v-1364h-3608zM256 223h3238v994h-3238v-994zM473 393v647h297q86 0 141 -24q51 -23 90 -68q16 -23 29.5 -49.5t22.5 -54.5q16 -61 16 -125q0 -104 -25 -162q-25 -57 -65 -96q-23 -18 -44.5 -31.5t-45.5 -19.5q-33 -10 -62.5 -13.5t-56.5 -3.5h-297z M672 539h49q33 0 54.5 4t35.5 10q27 16 41 49q14 31 14 113q0 102 -32 141q-35 37 -111 37h-51v-354zM1174 393v647h534v-139h-334v-102h312v-133h-312v-127h344v-146h-544zM1825 393v647h262l102 -395l101 395h262v-647h-164v494l-125 -494h-149l-125 494v-494h-164z M2654 715q0 156 88 248q88 88 246 88q164 0 250 -86q88 -92 88 -244q0 -115 -39 -186q-37 -72 -111 -113q-72 -41 -180 -41q-106 0 -180 35q-70 35 -117 110q-45 76 -45 189zM2855 715q0 -98 37 -142q37 -43 98 -43q63 0 100 43q35 41 35 150q0 92 -37 133q-37 43 -100 43 q-59 0 -96 -43t-37 -141z" />
<glyph unicode="-" d="M72 37v1364h3608v-1364h-3608zM256 223h3238v994h-3238v-994zM473 393v647h297q86 0 141 -24q51 -23 90 -68q16 -23 29.5 -49.5t22.5 -54.5q16 -61 16 -125q0 -104 -25 -162q-25 -57 -65 -96q-23 -18 -44.5 -31.5t-45.5 -19.5q-33 -10 -62.5 -13.5t-56.5 -3.5h-297z M672 539h49q33 0 54.5 4t35.5 10q27 16 41 49q14 31 14 113q0 102 -32 141q-35 37 -111 37h-51v-354zM1174 393v647h534v-139h-334v-102h312v-133h-312v-127h344v-146h-544zM1825 393v647h262l102 -395l101 395h262v-647h-164v494l-125 -494h-149l-125 494v-494h-164z M2654 715q0 156 88 248q88 88 246 88q164 0 250 -86q88 -92 88 -244q0 -115 -39 -186q-37 -72 -111 -113q-72 -41 -180 -41q-106 0 -180 35q-70 35 -117 110q-45 76 -45 189zM2855 715q0 -98 37 -142q37 -43 98 -43q63 0 100 43q35 41 35 150q0 92 -37 133q-37 43 -100 43 q-59 0 -96 -43t-37 -141z" />
<glyph unicode="." d="M72 37v1364h3608v-1364h-3608zM256 223h3238v994h-3238v-994zM473 393v647h297q86 0 141 -24q51 -23 90 -68q16 -23 29.5 -49.5t22.5 -54.5q16 -61 16 -125q0 -104 -25 -162q-25 -57 -65 -96q-23 -18 -44.5 -31.5t-45.5 -19.5q-33 -10 -62.5 -13.5t-56.5 -3.5h-297z M672 539h49q33 0 54.5 4t35.5 10q27 16 41 49q14 31 14 113q0 102 -32 141q-35 37 -111 37h-51v-354zM1174 393v647h534v-139h-334v-102h312v-133h-312v-127h344v-146h-544zM1825 393v647h262l102 -395l101 395h262v-647h-164v494l-125 -494h-149l-125 494v-494h-164z M2654 715q0 156 88 248q88 88 246 88q164 0 250 -86q88 -92 88 -244q0 -115 -39 -186q-37 -72 -111 -113q-72 -41 -180 -41q-106 0 -180 35q-70 35 -117 110q-45 76 -45 189zM2855 715q0 -98 37 -142q37 -43 98 -43q63 0 100 43q35 41 35 150q0 92 -37 133q-37 43 -100 43 q-59 0 -96 -43t-37 -141z" />
<glyph unicode="/" d="M72 37v1364h3608v-1364h-3608zM256 223h3238v994h-3238v-994zM473 393v647h297q86 0 141 -24q51 -23 90 -68q16 -23 29.5 -49.5t22.5 -54.5q16 -61 16 -125q0 -104 -25 -162q-25 -57 -65 -96q-23 -18 -44.5 -31.5t-45.5 -19.5q-33 -10 -62.5 -13.5t-56.5 -3.5h-297z M672 539h49q33 0 54.5 4t35.5 10q27 16 41 49q14 31 14 113q0 102 -32 141q-35 37 -111 37h-51v-354zM1174 393v647h534v-139h-334v-102h312v-133h-312v-127h344v-146h-544zM1825 393v647h262l102 -395l101 395h262v-647h-164v494l-125 -494h-149l-125 494v-494h-164z M2654 715q0 156 88 248q88 88 246 88q164 0 250 -86q88 -92 88 -244q0 -115 -39 -186q-37 -72 -111 -113q-72 -41 -180 -41q-106 0 -180 35q-70 35 -117 110q-45 76 -45 189zM2855 715q0 -98 37 -142q37 -43 98 -43q63 0 100 43q35 41 35 150q0 92 -37 133q-37 43 -100 43 q-59 0 -96 -43t-37 -141z" />
<glyph unicode="0" d="M72 37v1364h3608v-1364h-3608zM256 223h3238v994h-3238v-994zM473 393v647h297q86 0 141 -24q51 -23 90 -68q16 -23 29.5 -49.5t22.5 -54.5q16 -61 16 -125q0 -104 -25 -162q-25 -57 -65 -96q-23 -18 -44.5 -31.5t-45.5 -19.5q-33 -10 -62.5 -13.5t-56.5 -3.5h-297z M672 539h49q33 0 54.5 4t35.5 10q27 16 41 49q14 31 14 113q0 102 -32 141q-35 37 -111 37h-51v-354zM1174 393v647h534v-139h-334v-102h312v-133h-312v-127h344v-146h-544zM1825 393v647h262l102 -395l101 395h262v-647h-164v494l-125 -494h-149l-125 494v-494h-164z M2654 715q0 156 88 248q88 88 246 88q164 0 250 -86q88 -92 88 -244q0 -115 -39 -186q-37 -72 -111 -113q-72 -41 -180 -41q-106 0 -180 35q-70 35 -117 110q-45 76 -45 189zM2855 715q0 -98 37 -142q37 -43 98 -43q63 0 100 43q35 41 35 150q0 92 -37 133q-37 43 -100 43 q-59 0 -96 -43t-37 -141z" />
<glyph unicode="1" d="M72 37v1364h3608v-1364h-3608zM256 223h3238v994h-3238v-994zM473 393v647h297q86 0 141 -24q51 -23 90 -68q16 -23 29.5 -49.5t22.5 -54.5q16 -61 16 -125q0 -104 -25 -162q-25 -57 -65 -96q-23 -18 -44.5 -31.5t-45.5 -19.5q-33 -10 -62.5 -13.5t-56.5 -3.5h-297z M672 539h49q33 0 54.5 4t35.5 10q27 16 41 49q14 31 14 113q0 102 -32 141q-35 37 -111 37h-51v-354zM1174 393v647h534v-139h-334v-102h312v-133h-312v-127h344v-146h-544zM1825 393v647h262l102 -395l101 395h262v-647h-164v494l-125 -494h-149l-125 494v-494h-164z M2654 715q0 156 88 248q88 88 246 88q164 0 250 -86q88 -92 88 -244q0 -115 -39 -186q-37 -72 -111 -113q-72 -41 -180 -41q-106 0 -180 35q-70 35 -117 110q-45 76 -45 189zM2855 715q0 -98 37 -142q37 -43 98 -43q63 0 100 43q35 41 35 150q0 92 -37 133q-37 43 -100 43 q-59 0 -96 -43t-37 -141z" />
<glyph unicode="2" d="M72 37v1364h3608v-1364h-3608zM256 223h3238v994h-3238v-994zM473 393v647h297q86 0 141 -24q51 -23 90 -68q16 -23 29.5 -49.5t22.5 -54.5q16 -61 16 -125q0 -104 -25 -162q-25 -57 -65 -96q-23 -18 -44.5 -31.5t-45.5 -19.5q-33 -10 -62.5 -13.5t-56.5 -3.5h-297z M672 539h49q33 0 54.5 4t35.5 10q27 16 41 49q14 31 14 113q0 102 -32 141q-35 37 -111 37h-51v-354zM1174 393v647h534v-139h-334v-102h312v-133h-312v-127h344v-146h-544zM1825 393v647h262l102 -395l101 395h262v-647h-164v494l-125 -494h-149l-125 494v-494h-164z M2654 715q0 156 88 248q88 88 246 88q164 0 250 -86q88 -92 88 -244q0 -115 -39 -186q-37 -72 -111 -113q-72 -41 -180 -41q-106 0 -180 35q-70 35 -117 110q-45 76 -45 189zM2855 715q0 -98 37 -142q37 -43 98 -43q63 0 100 43q35 41 35 150q0 92 -37 133q-37 43 -100 43 q-59 0 -96 -43t-37 -141z" />
<glyph unicode="3" d="M72 37v1364h3608v-1364h-3608zM256 223h3238v994h-3238v-994zM473 393v647h297q86 0 141 -24q51 -23 90 -68q16 -23 29.5 -49.5t22.5 -54.5q16 -61 16 -125q0 -104 -25 -162q-25 -57 -65 -96q-23 -18 -44.5 -31.5t-45.5 -19.5q-33 -10 -62.5 -13.5t-56.5 -3.5h-297z M672 539h49q33 0 54.5 4t35.5 10q27 16 41 49q14 31 14 113q0 102 -32 141q-35 37 -111 37h-51v-354zM1174 393v647h534v-139h-334v-102h312v-133h-312v-127h344v-146h-544zM1825 393v647h262l102 -395l101 395h262v-647h-164v494l-125 -494h-149l-125 494v-494h-164z M2654 715q0 156 88 248q88 88 246 88q164 0 250 -86q88 -92 88 -244q0 -115 -39 -186q-37 -72 -111 -113q-72 -41 -180 -41q-106 0 -180 35q-70 35 -117 110q-45 76 -45 189zM2855 715q0 -98 37 -142q37 -43 98 -43q63 0 100 43q35 41 35 150q0 92 -37 133q-37 43 -100 43 q-59 0 -96 -43t-37 -141z" />
<glyph unicode="4" d="M72 37v1364h3608v-1364h-3608zM256 223h3238v994h-3238v-994zM473 393v647h297q86 0 141 -24q51 -23 90 -68q16 -23 29.5 -49.5t22.5 -54.5q16 -61 16 -125q0 -104 -25 -162q-25 -57 -65 -96q-23 -18 -44.5 -31.5t-45.5 -19.5q-33 -10 -62.5 -13.5t-56.5 -3.5h-297z M672 539h49q33 0 54.5 4t35.5 10q27 16 41 49q14 31 14 113q0 102 -32 141q-35 37 -111 37h-51v-354zM1174 393v647h534v-139h-334v-102h312v-133h-312v-127h344v-146h-544zM1825 393v647h262l102 -395l101 395h262v-647h-164v494l-125 -494h-149l-125 494v-494h-164z M2654 715q0 156 88 248q88 88 246 88q164 0 250 -86q88 -92 88 -244q0 -115 -39 -186q-37 -72 -111 -113q-72 -41 -180 -41q-106 0 -180 35q-70 35 -117 110q-45 76 -45 189zM2855 715q0 -98 37 -142q37 -43 98 -43q63 0 100 43q35 41 35 150q0 92 -37 133q-37 43 -100 43 q-59 0 -96 -43t-37 -141z" />
<glyph unicode="5" d="M72 37v1364h3608v-1364h-3608zM256 223h3238v994h-3238v-994zM473 393v647h297q86 0 141 -24q51 -23 90 -68q16 -23 29.5 -49.5t22.5 -54.5q16 -61 16 -125q0 -104 -25 -162q-25 -57 -65 -96q-23 -18 -44.5 -31.5t-45.5 -19.5q-33 -10 -62.5 -13.5t-56.5 -3.5h-297z M672 539h49q33 0 54.5 4t35.5 10q27 16 41 49q14 31 14 113q0 102 -32 141q-35 37 -111 37h-51v-354zM1174 393v647h534v-139h-334v-102h312v-133h-312v-127h344v-146h-544zM1825 393v647h262l102 -395l101 395h262v-647h-164v494l-125 -494h-149l-125 494v-494h-164z M2654 715q0 156 88 248q88 88 246 88q164 0 250 -86q88 -92 88 -244q0 -115 -39 -186q-37 -72 -111 -113q-72 -41 -180 -41q-106 0 -180 35q-70 35 -117 110q-45 76 -45 189zM2855 715q0 -98 37 -142q37 -43 98 -43q63 0 100 43q35 41 35 150q0 92 -37 133q-37 43 -100 43 q-59 0 -96 -43t-37 -141z" />
<glyph unicode="6" d="M72 37v1364h3608v-1364h-3608zM256 223h3238v994h-3238v-994zM473 393v647h297q86 0 141 -24q51 -23 90 -68q16 -23 29.5 -49.5t22.5 -54.5q16 -61 16 -125q0 -104 -25 -162q-25 -57 -65 -96q-23 -18 -44.5 -31.5t-45.5 -19.5q-33 -10 -62.5 -13.5t-56.5 -3.5h-297z M672 539h49q33 0 54.5 4t35.5 10q27 16 41 49q14 31 14 113q0 102 -32 141q-35 37 -111 37h-51v-354zM1174 393v647h534v-139h-334v-102h312v-133h-312v-127h344v-146h-544zM1825 393v647h262l102 -395l101 395h262v-647h-164v494l-125 -494h-149l-125 494v-494h-164z M2654 715q0 156 88 248q88 88 246 88q164 0 250 -86q88 -92 88 -244q0 -115 -39 -186q-37 -72 -111 -113q-72 -41 -180 -41q-106 0 -180 35q-70 35 -117 110q-45 76 -45 189zM2855 715q0 -98 37 -142q37 -43 98 -43q63 0 100 43q35 41 35 150q0 92 -37 133q-37 43 -100 43 q-59 0 -96 -43t-37 -141z" />
<glyph unicode="7" d="M72 37v1364h3608v-1364h-3608zM256 223h3238v994h-3238v-994zM473 393v647h297q86 0 141 -24q51 -23 90 -68q16 -23 29.5 -49.5t22.5 -54.5q16 -61 16 -125q0 -104 -25 -162q-25 -57 -65 -96q-23 -18 -44.5 -31.5t-45.5 -19.5q-33 -10 -62.5 -13.5t-56.5 -3.5h-297z M672 539h49q33 0 54.5 4t35.5 10q27 16 41 49q14 31 14 113q0 102 -32 141q-35 37 -111 37h-51v-354zM1174 393v647h534v-139h-334v-102h312v-133h-312v-127h344v-146h-544zM1825 393v647h262l102 -395l101 395h262v-647h-164v494l-125 -494h-149l-125 494v-494h-164z M2654 715q0 156 88 248q88 88 246 88q164 0 250 -86q88 -92 88 -244q0 -115 -39 -186q-37 -72 -111 -113q-72 -41 -180 -41q-106 0 -180 35q-70 35 -117 110q-45 76 -45 189zM2855 715q0 -98 37 -142q37 -43 98 -43q63 0 100 43q35 41 35 150q0 92 -37 133q-37 43 -100 43 q-59 0 -96 -43t-37 -141z" />
<glyph unicode="8" d="M72 37v1364h3608v-1364h-3608zM256 223h3238v994h-3238v-994zM473 393v647h297q86 0 141 -24q51 -23 90 -68q16 -23 29.5 -49.5t22.5 -54.5q16 -61 16 -125q0 -104 -25 -162q-25 -57 -65 -96q-23 -18 -44.5 -31.5t-45.5 -19.5q-33 -10 -62.5 -13.5t-56.5 -3.5h-297z M672 539h49q33 0 54.5 4t35.5 10q27 16 41 49q14 31 14 113q0 102 -32 141q-35 37 -111 37h-51v-354zM1174 393v647h534v-139h-334v-102h312v-133h-312v-127h344v-146h-544zM1825 393v647h262l102 -395l101 395h262v-647h-164v494l-125 -494h-149l-125 494v-494h-164z M2654 715q0 156 88 248q88 88 246 88q164 0 250 -86q88 -92 88 -244q0 -115 -39 -186q-37 -72 -111 -113q-72 -41 -180 -41q-106 0 -180 35q-70 35 -117 110q-45 76 -45 189zM2855 715q0 -98 37 -142q37 -43 98 -43q63 0 100 43q35 41 35 150q0 92 -37 133q-37 43 -100 43 q-59 0 -96 -43t-37 -141z" />
<glyph unicode="9" d="M72 37v1364h3608v-1364h-3608zM256 223h3238v994h-3238v-994zM473 393v647h297q86 0 141 -24q51 -23 90 -68q16 -23 29.5 -49.5t22.5 -54.5q16 -61 16 -125q0 -104 -25 -162q-25 -57 -65 -96q-23 -18 -44.5 -31.5t-45.5 -19.5q-33 -10 -62.5 -13.5t-56.5 -3.5h-297z M672 539h49q33 0 54.5 4t35.5 10q27 16 41 49q14 31 14 113q0 102 -32 141q-35 37 -111 37h-51v-354zM1174 393v647h534v-139h-334v-102h312v-133h-312v-127h344v-146h-544zM1825 393v647h262l102 -395l101 395h262v-647h-164v494l-125 -494h-149l-125 494v-494h-164z M2654 715q0 156 88 248q88 88 246 88q164 0 250 -86q88 -92 88 -244q0 -115 -39 -186q-37 -72 -111 -113q-72 -41 -180 -41q-106 0 -180 35q-70 35 -117 110q-45 76 -45 189zM2855 715q0 -98 37 -142q37 -43 98 -43q63 0 100 43q35 41 35 150q0 92 -37 133q-37 43 -100 43 q-59 0 -96 -43t-37 -141z" />
<glyph unicode=":" d="M72 37v1364h3608v-1364h-3608zM256 223h3238v994h-3238v-994zM473 393v647h297q86 0 141 -24q51 -23 90 -68q16 -23 29.5 -49.5t22.5 -54.5q16 -61 16 -125q0 -104 -25 -162q-25 -57 -65 -96q-23 -18 -44.5 -31.5t-45.5 -19.5q-33 -10 -62.5 -13.5t-56.5 -3.5h-297z M672 539h49q33 0 54.5 4t35.5 10q27 16 41 49q14 31 14 113q0 102 -32 141q-35 37 -111 37h-51v-354zM1174 393v647h534v-139h-334v-102h312v-133h-312v-127h344v-146h-544zM1825 393v647h262l102 -395l101 395h262v-647h-164v494l-125 -494h-149l-125 494v-494h-164z M2654 715q0 156 88 248q88 88 246 88q164 0 250 -86q88 -92 88 -244q0 -115 -39 -186q-37 -72 -111 -113q-72 -41 -180 -41q-106 0 -180 35q-70 35 -117 110q-45 76 -45 189zM2855 715q0 -98 37 -142q37 -43 98 -43q63 0 100 43q35 41 35 150q0 92 -37 133q-37 43 -100 43 q-59 0 -96 -43t-37 -141z" />
<glyph unicode=";" d="M72 37v1364h3608v-1364h-3608zM256 223h3238v994h-3238v-994zM473 393v647h297q86 0 141 -24q51 -23 90 -68q16 -23 29.5 -49.5t22.5 -54.5q16 -61 16 -125q0 -104 -25 -162q-25 -57 -65 -96q-23 -18 -44.5 -31.5t-45.5 -19.5q-33 -10 -62.5 -13.5t-56.5 -3.5h-297z M672 539h49q33 0 54.5 4t35.5 10q27 16 41 49q14 31 14 113q0 102 -32 141q-35 37 -111 37h-51v-354zM1174 393v647h534v-139h-334v-102h312v-133h-312v-127h344v-146h-544zM1825 393v647h262l102 -395l101 395h262v-647h-164v494l-125 -494h-149l-125 494v-494h-164z M2654 715q0 156 88 248q88 88 246 88q164 0 250 -86q88 -92 88 -244q0 -115 -39 -186q-37 -72 -111 -113q-72 -41 -180 -41q-106 0 -180 35q-70 35 -117 110q-45 76 -45 189zM2855 715q0 -98 37 -142q37 -43 98 -43q63 0 100 43q35 41 35 150q0 92 -37 133q-37 43 -100 43 q-59 0 -96 -43t-37 -141z" />
<glyph unicode="&#x3c;" d="M72 37v1364h3608v-1364h-3608zM256 223h3238v994h-3238v-994zM473 393v647h297q86 0 141 -24q51 -23 90 -68q16 -23 29.5 -49.5t22.5 -54.5q16 -61 16 -125q0 -104 -25 -162q-25 -57 -65 -96q-23 -18 -44.5 -31.5t-45.5 -19.5q-33 -10 -62.5 -13.5t-56.5 -3.5h-297z M672 539h49q33 0 54.5 4t35.5 10q27 16 41 49q14 31 14 113q0 102 -32 141q-35 37 -111 37h-51v-354zM1174 393v647h534v-139h-334v-102h312v-133h-312v-127h344v-146h-544zM1825 393v647h262l102 -395l101 395h262v-647h-164v494l-125 -494h-149l-125 494v-494h-164z M2654 715q0 156 88 248q88 88 246 88q164 0 250 -86q88 -92 88 -244q0 -115 -39 -186q-37 -72 -111 -113q-72 -41 -180 -41q-106 0 -180 35q-70 35 -117 110q-45 76 -45 189zM2855 715q0 -98 37 -142q37 -43 98 -43q63 0 100 43q35 41 35 150q0 92 -37 133q-37 43 -100 43 q-59 0 -96 -43t-37 -141z" />
<glyph unicode="=" d="M72 37v1364h3608v-1364h-3608zM256 223h3238v994h-3238v-994zM473 393v647h297q86 0 141 -24q51 -23 90 -68q16 -23 29.5 -49.5t22.5 -54.5q16 -61 16 -125q0 -104 -25 -162q-25 -57 -65 -96q-23 -18 -44.5 -31.5t-45.5 -19.5q-33 -10 -62.5 -13.5t-56.5 -3.5h-297z M672 539h49q33 0 54.5 4t35.5 10q27 16 41 49q14 31 14 113q0 102 -32 141q-35 37 -111 37h-51v-354zM1174 393v647h534v-139h-334v-102h312v-133h-312v-127h344v-146h-544zM1825 393v647h262l102 -395l101 395h262v-647h-164v494l-125 -494h-149l-125 494v-494h-164z M2654 715q0 156 88 248q88 88 246 88q164 0 250 -86q88 -92 88 -244q0 -115 -39 -186q-37 -72 -111 -113q-72 -41 -180 -41q-106 0 -180 35q-70 35 -117 110q-45 76 -45 189zM2855 715q0 -98 37 -142q37 -43 98 -43q63 0 100 43q35 41 35 150q0 92 -37 133q-37 43 -100 43 q-59 0 -96 -43t-37 -141z" />
<glyph unicode="&#x3e;" d="M72 37v1364h3608v-1364h-3608zM256 223h3238v994h-3238v-994zM473 393v647h297q86 0 141 -24q51 -23 90 -68q16 -23 29.5 -49.5t22.5 -54.5q16 -61 16 -125q0 -104 -25 -162q-25 -57 -65 -96q-23 -18 -44.5 -31.5t-45.5 -19.5q-33 -10 -62.5 -13.5t-56.5 -3.5h-297z M672 539h49q33 0 54.5 4t35.5 10q27 16 41 49q14 31 14 113q0 102 -32 141q-35 37 -111 37h-51v-354zM1174 393v647h534v-139h-334v-102h312v-133h-312v-127h344v-146h-544zM1825 393v647h262l102 -395l101 395h262v-647h-164v494l-125 -494h-149l-125 494v-494h-164z M2654 715q0 156 88 248q88 88 246 88q164 0 250 -86q88 -92 88 -244q0 -115 -39 -186q-37 -72 -111 -113q-72 -41 -180 -41q-106 0 -180 35q-70 35 -117 110q-45 76 -45 189zM2855 715q0 -98 37 -142q37 -43 98 -43q63 0 100 43q35 41 35 150q0 92 -37 133q-37 43 -100 43 q-59 0 -96 -43t-37 -141z" />
<glyph unicode="?" d="M72 37v1364h3608v-1364h-3608zM256 223h3238v994h-3238v-994zM473 393v647h297q86 0 141 -24q51 -23 90 -68q16 -23 29.5 -49.5t22.5 -54.5q16 -61 16 -125q0 -104 -25 -162q-25 -57 -65 -96q-23 -18 -44.5 -31.5t-45.5 -19.5q-33 -10 -62.5 -13.5t-56.5 -3.5h-297z M672 539h49q33 0 54.5 4t35.5 10q27 16 41 49q14 31 14 113q0 102 -32 141q-35 37 -111 37h-51v-354zM1174 393v647h534v-139h-334v-102h312v-133h-312v-127h344v-146h-544zM1825 393v647h262l102 -395l101 395h262v-647h-164v494l-125 -494h-149l-125 494v-494h-164z M2654 715q0 156 88 248q88 88 246 88q164 0 250 -86q88 -92 88 -244q0 -115 -39 -186q-37 -72 -111 -113q-72 -41 -180 -41q-106 0 -180 35q-70 35 -117 110q-45 76 -45 189zM2855 715q0 -98 37 -142q37 -43 98 -43q63 0 100 43q35 41 35 150q0 92 -37 133q-37 43 -100 43 q-59 0 -96 -43t-37 -141z" />
<glyph unicode="@" d="M72 37v1364h3608v-1364h-3608zM256 223h3238v994h-3238v-994zM473 393v647h297q86 0 141 -24q51 -23 90 -68q16 -23 29.5 -49.5t22.5 -54.5q16 -61 16 -125q0 -104 -25 -162q-25 -57 -65 -96q-23 -18 -44.5 -31.5t-45.5 -19.5q-33 -10 -62.5 -13.5t-56.5 -3.5h-297z M672 539h49q33 0 54.5 4t35.5 10q27 16 41 49q14 31 14 113q0 102 -32 141q-35 37 -111 37h-51v-354zM1174 393v647h534v-139h-334v-102h312v-133h-312v-127h344v-146h-544zM1825 393v647h262l102 -395l101 395h262v-647h-164v494l-125 -494h-149l-125 494v-494h-164z M2654 715q0 156 88 248q88 88 246 88q164 0 250 -86q88 -92 88 -244q0 -115 -39 -186q-37 -72 -111 -113q-72 -41 -180 -41q-106 0 -180 35q-70 35 -117 110q-45 76 -45 189zM2855 715q0 -98 37 -142q37 -43 98 -43q63 0 100 43q35 41 35 150q0 92 -37 133q-37 43 -100 43 q-59 0 -96 -43t-37 -141z" />
<glyph unicode="A" horiz-adv-x="772" d="M-127 32q-6 7 0 31q0 14 8 58.5t21.5 104t30 131t34.5 141.5l35 129l-29 12q-25 12 -25 23q0 18 64 34q4 0 14.5 28t22.5 67q33 104 74 207.5t84 187.5t83 143.5t70 77.5q25 16 51 16q21 0 43 -12q48 -25 64 -84q6 -18 8 -63q1 -30 1 -66v-38q-1 -58 -4 -125.5t-9 -135.5 q-6 -61 -10 -107.5t-4 -50.5t13 -5t29.5 0t33 4t20.5 8q4 2 8 6q23 10 39 10q14 0 22.5 -9.5t0.5 -37.5q-10 -39 -99 -41q-45 -4 -56 -7t-15 -18q-2 -12 -5.5 -51t-5.5 -94t-5 -117.5t-4 -122t-1 -106.5t2 -72q2 -37 6 -80t9.5 -80t11.5 -62.5t10 -29.5t15.5 30t33.5 118 q12 49 32.5 119.5t43.5 141t43 132t33 94.5q32 86 57 115q14 18 30.5 25t28 3t14.5 -18t-9 -37q-8 -16 -25.5 -68.5t-39 -124t-45.5 -152.5t-44 -155q-25 -90 -41 -146t-31.5 -89t-30 -48.5t-34.5 -23.5q-19 -7 -36 -7q-53 -1 -84 73q-42 98 -56 340q-2 27 -3 66.5t-1 82.5 v88v84l6 187l-35 -4q-14 -4 -54 -8.5t-81 -8.5q-43 -4 -72 -9t-31 -9q0 -2 -6 -21.5t-14 -52.5t-18.5 -75t-22.5 -87q-27 -102 -45.5 -168.5t-30.5 -105.5t-19.5 -55.5t-13.5 -18.5q-4 -4 -15 -10t-22.5 -7t-17.5 6zM123 715q0 -2 25.5 1t60.5 7t71.5 8t53.5 4h39l8 74 q2 29 8 88.5t10 112.5q6 53 10.5 118.5t4.5 106.5t-2 73.5t-6 39.5q-4 10 -12.5 4t-33.5 -39q-20 -27 -43.5 -70t-48 -93t-45 -102.5t-35.5 -95.5q-14 -45 -27.5 -88t-22.5 -75.5t-13 -53t-2 -20.5z" />
<glyph unicode="B" horiz-adv-x="1015" d="M-1 563v63q0 64 1 132q2 102 7 197.5t11 160.5q6 55 13.5 105.5t13.5 92.5t12 70.5t11 40.5q6 12 13 24.5t25 12.5q14 0 22.5 -15t12.5 -28l2 -17q2 -18 3 -58.5t1 -112.5t-2 -178q-2 -74 -3 -137.5t-1 -109.5t1 -71.5t3 -21.5q8 35 24.5 82t34 94t35 90t29.5 70 q119 236 238 260q21 5 40 5q40 0 66 -23q40 -34 39 -105q0 -63 -28.5 -148.5t-77.5 -163.5q-10 -16 -16.5 -29.5t-2.5 -17.5q2 -2 14.5 0t28.5 7q25 7 48 7q22 -1 42 -7q41 -14 74 -45t56.5 -74t33.5 -88l15 -60l59 25q33 14 57.5 19t53.5 3q66 -2 66 -18q0 -14 -56 -25 q-14 -4 -44 -13t-56 -19l-68 -27v-121q-2 -190 -40 -330.5t-110 -226.5q-35 -39 -77.5 -62.5t-86.5 -29.5q-15 -2 -29 -2q-29 0 -56 8q-41 12 -70 43q-31 31 -43 67t-12 91q0 59 14 117.5t47 126.5q45 90 113.5 162.5t158.5 123.5q45 27 46 43q0 16 -5.5 44t-12.5 56.5 t-16 55.5t-18 43q-16 31 -25.5 38t-31.5 9q-29 2 -53.5 -7t-47 -24.5t-43 -34t-40.5 -34.5q-23 -23 -38.5 -26t-25.5 1q-10 6 -18 19q-8 20 10 47q10 12 27.5 38.5t36 59.5t37 65.5t30.5 59.5q47 94 67 169q13 50 12 85q0 18 -3 33q-8 25 -12.5 29.5t-14.5 -1.5 q-12 -6 -30.5 -27.5t-40 -50t-43 -63.5t-37.5 -68q-84 -168 -130 -383t-61 -512q-4 -68 -6 -91t-12 -34q-6 -6 -17.5 -18t-26 -18.5t-28.5 1t-27 40.5q-6 12 -14 50t-15 90t-14.5 115.5t-11.5 129.5q-6 61 -7 155zM430 -49q0 -68 23.5 -111t60.5 -43q10 0 26.5 12.5t33 31 t33 40.5t26.5 45q16 35 30.5 87.5t25.5 112.5t17.5 125.5t6.5 127.5q0 18 -2 32.5t-4 14.5q-4 0 -20.5 -12.5t-37 -30.5t-41 -38.5t-35.5 -37.5q-31 -35 -56 -80t-44.5 -93t-31 -96t-11.5 -87z" />
<glyph unicode="C" horiz-adv-x="845" d="M-6 526q4 119 18.5 209t42.5 180q57 180 150.5 289t210.5 125q21 3 42 3q25 0 52 -4q49 -7 92 -25q27 -12 55.5 -36t51 -51.5t38 -55t15.5 -46.5q0 -6 -2 -10q-2 -10 -6 -22.5t-13.5 -17.5t-24 3t-38.5 41q-4 6 -10 14t-13 19q-20 37 -54 67t-73 46q-29 12 -60 12 q-10 0 -20 -1q-42 -5 -81 -40q-137 -125 -201 -453q-6 -35 -10 -62.5t-6.5 -60.5t-2.5 -75v-103q0 -66 1.5 -105.5t2.5 -67.5t5 -48.5t10 -42.5q43 -161 91 -223q41 -53 84 -52q7 0 15 2q52 12 108 86t116 191q18 37 48.5 92t63.5 109.5t62.5 99.5t44.5 63q18 18 40.5 34 t51.5 -5l20 -16q-33 -41 -80 -125t-96 -187q-76 -150 -126 -239.5t-90 -138t-78 -64.5t-87 -16h-5q-65 0 -133 48q-72 50 -116 130q-58 100 -84 236q-23 118 -23 253q0 20 1 41z" />
<glyph unicode="D" horiz-adv-x="1155" d="M-32 1042q1 62 7 105q6 47 15.5 93t19.5 79q16 63 32.5 77.5t29.5 4.5q14 -10 28 -47v-2q4 -20 6.5 -76.5t4.5 -185.5q2 -150 7 -239t15 -155q6 -51 12.5 -87t8.5 -38t7 28t11 75q14 100 34.5 184t51.5 155.5t72 133t94 119.5q53 53 102 88t105 55q51 19 85 21h11 q30 0 68 -11q76 -25 121 -77t68.5 -122.5t30.5 -153.5q6 -73 6 -146v-21q-1 -84 -4 -163q-1 -34 -1 -65q0 -41 2 -77l45 10q35 10 59.5 11t53.5 -5q64 -10 64 -28q0 -17 -58 -17q-16 0 -47 -5t-60 -11l-69 -17l-19 -118q-33 -188 -91 -321.5t-142 -205.5q-41 -35 -87 -51 t-90.5 -16t-83 18.5t-63.5 52.5q-25 35 -32 73q-3 18 -3 39q0 24 4 54q10 59 34 114.5t67 115.5q57 84 136 145.5t175 97.5q27 8 43 21q2 86 3 161.5t1 134t-2 94.5t-2 46q-6 61 -16.5 118.5t-24.5 106t-31.5 83t-36.5 53.5q-14 13 -35 13q-19 0 -45 -11q-53 -23 -112 -76 t-115.5 -128t-89.5 -155q-100 -233 -106 -717q-2 -41 -3 -88t-6 -69q-2 -49 -12 -56q-18 -18 -39 -26q-16 -6 -35.5 1t-33.5 44q-10 27 -25.5 87t-32 139t-33 168t-28.5 173q-10 61 -15.5 130t-8.5 137q-2 51 -2 97v31zM504 43q-4 -26 -4 -49q0 -36 10 -64q16 -45 53 -51 q10 -2 28.5 7.5t38 25.5t39 35.5t31.5 40.5q20 31 43 78t42.5 102t35 115.5t25.5 119.5q2 16 2 33t2 33q-4 0 -22.5 -9t-41 -23.5t-46 -31t-40.5 -30.5q-35 -31 -67.5 -71t-59 -85t-45 -91t-24.5 -85z" />
<glyph unicode="E" horiz-adv-x="722" d="M-8 739q-1 36 -1 66.5t1 56.5q2 51 11 88t25.5 61.5t41.5 43.5q23 18 58 18q15 1 32 -3q57 -10 110 -50l31 -23l-6 27q-2 10 -5 45t-7 74q-2 28 -2 55q-1 99 23 175q30 97 87 120q23 10 56.5 8t64.5 -14q37 -16 66.5 -54t46.5 -90q16 -50 16 -67q0 -13 -2 -19 q-4 -10 -9 -24t-14.5 -20.5t-21.5 -1t-29 33.5q-8 12 -17 31.5t-20 44.5q-23 59 -41 87t-28 22q-4 -4 -10.5 -17.5t-12.5 -32.5q-20 -52 -21 -162v-14q0 -106 15 -252q10 -84 14.5 -136t-0.5 -56q-4 -4 -15 -6t-23 -6q-35 -6 -57.5 16t-57.5 98q-45 92 -90 135 q-27 26 -46 26q-12 0 -22 -11q-10 -14 -16 -31.5t-10.5 -45.5t-5.5 -67t-1 -94q0 -63 2 -111.5t9.5 -93.5t19.5 -93t31 -111q23 -76 47 -141.5t47 -115t43 -79t37 -33.5q3 -1 6 -1q39 0 117 152q37 70 78 144t78.5 136t67.5 106.5t42 56.5q4 4 12.5 7t16.5 7q23 8 37 10 q12 2 18 -4t-6 -24q-6 -12 -31 -51q-14 -25 -42 -78.5t-50 -102.5q-39 -82 -66.5 -137t-47 -93t-34 -62.5t-28.5 -43.5q-66 -88 -150 -88t-148.5 87t-133.5 296q-23 68 -37.5 120t-23.5 99.5t-13 96.5t-6 110z" />
<glyph unicode="F" horiz-adv-x="546" d="M4 276q-4 167 -4 311q0 365 26 579q36 298 124 327q15 5 35 5q40 0 98 -19q35 -10 64.5 -18.5t59 -13.5t62.5 -9t74 -6q94 -9 108 -21q16 -16 -7 -25.5t-70.5 -9.5t-112 9.5t-127.5 25.5q-45 10 -76 18.5t-33 6.5q-4 -2 -9 -43t-10 -97.5t-10.5 -118t-7.5 -104.5 q-2 -47 -2 -73.5t1 -39t4.5 -13.5t9.5 1q27 10 66.5 17.5t79.5 10.5q30 2 57 2h17q34 -1 52 -7q23 -8 24 -21.5t-20 -17.5q-10 -2 -29.5 -6t-39.5 -8t-61.5 -16.5t-78.5 -24.5l-88 -31l-6 -68q-4 -29 -10 -96.5t-14 -134.5q-4 -35 -7.5 -76t-6.5 -83t-5 -81t-2 -69 q-4 -61 -6 -108.5t-2 -55.5q-4 -20 -4 -66q0 -31 -4 -39q-12 -18 -25 -26q-10 -6 -26.5 -1t-32.5 40q-4 8 -6 16q-6 20 -11.5 82.5t-7.5 195.5z" />
<glyph unicode="G" horiz-adv-x="1140" d="M0 576q2 139 35 269t95.5 241.5t148.5 189.5q20 18 51.5 38.5t65.5 38t65 30t49 14.5q27 4 37 8q4 4 21.5 5t41 -1t49 -5t43.5 -7q152 -41 162 -189q4 -37 1 -51t-13 -24l-4 -5q-4 -4 -10.5 -9t-15.5 -5t-21.5 7t-24.5 30q-14 20 -20 47q-4 33 -24.5 67.5t-43.5 51.5 q-14 10 -37.5 15t-51.5 5t-55.5 -6t-47.5 -16q-117 -61 -201 -180t-127 -289q-10 -33 -15.5 -58.5t-8.5 -52t-5 -58.5t-2 -77q-1 -35 -1 -68q0 -158 31 -268q38 -133 112 -174l32 -18l39 22q66 35 161 140.5t198 257.5q25 37 39 58t25 32.5t19.5 14.5t20.5 5q14 2 26 2 q48 0 64 -37q4 -10 9.5 -32.5t9.5 -47.5l8 -57l59 53q47 43 86 73t66 46q31 18 47 10q8 -4 12 -10q2 -2 2 -8q0 -4 -7 -13.5t-27.5 -29t-57.5 -51t-94 -82.5q-29 -25 -43.5 -38t-18.5 -32.5t-2 -57.5t6 -112q2 -35 2 -65q0 -56 -7 -99q-11 -67 -42 -116q-25 -35 -59.5 -55.5 t-70.5 -23.5q-6 -1 -13 -1q-29 0 -54 12q-32 14 -46 47q-15 28 -15 69q0 4 1 8q1 46 17.5 100.5t47.5 111.5t72 113l36 49l-14 73l-12 72l-84 -117q-145 -201 -257 -278q-81 -55 -160 -55q-30 0 -60 8q-31 8 -63 33.5t-59.5 62.5t-49 83t-35.5 99q-33 122 -33 253v14z M750 12q-7 -37 -7 -66q0 -36 11 -59q10 -23 22 -21.5t35 30.5t35 81t12 109q0 23 -2 53.5t-4 46.5l-6 45l-33 -57q-45 -80 -63 -162z" />
<glyph unicode="H" horiz-adv-x="1114" d="M-78 711q-26 5 -26 16q0 16 55 45l53 29l10 166q6 98 12.5 197.5t28.5 197.5q4 16 6 20q12 37 26.5 45.5t26 2t19.5 -18.5t10 -14q4 -6 6.5 -21.5t3.5 -46.5q0 -16 0.5 -36.5t-0.5 -45.5q-1 -51 -1 -133l-2 -272q66 20 124 34.5t113 25.5t112.5 20.5t121.5 19.5l20 115 q8 43 18.5 91t20.5 91t19.5 77t15.5 50q23 53 40 63.5t31 0.5q16 -12 29 -46q6 -16 6 -36q0 -12 -5 -56.5t-11 -98.5t-13.5 -109.5t-11.5 -88.5q-4 -23 -2 -27.5t13 -0.5q6 4 34.5 7t63.5 5q35 3 54 3q9 0 15 -1q16 -2 19 -12q4 -14 0 -19q-2 -2 -23.5 -6t-50.5 -8 q-66 -8 -100.5 -16.5t-34.5 -18.5q0 -4 -8 -72.5t-21 -162.5q-8 -72 -13 -124.5t-8 -98.5t-5 -94t-2 -109q0 -74 2 -129.5t7 -99.5t13 -78.5t23 -67.5q37 51 64.5 101t45.5 97q96 231 160 363.5t88 155.5q4 4 8 6t8 6q13 8 23 12q23 10 31 9t10 -5t0 -10l-2 -6 q-2 -4 -7 -15.5t-18 -33.5q-31 -53 -78 -163t-96 -239q-29 -80 -52 -134t-43.5 -90t-41 -58.5t-43.5 -36.5q-30 -18 -60 -18q-15 0 -29 4q-44 14 -73 61q-57 95 -69 317q-4 64 -4 135q0 178 22 402q6 63 10 109.5t2 48.5t-51 -6.5t-120.5 -23.5t-152.5 -35.5t-145 -39.5 l-4 -137q-2 -57 -9 -144t-15.5 -172t-15.5 -149.5t-11 -75.5q-6 -8 -15.5 -18t-20.5 -15.5t-21.5 -3t-18.5 20.5q-4 0 -6 83t-4 239q0 66 -1 124t-2 101t-2 68.5t-3 25.5q-6 0 -23 -10q-18 -8 -49 -4z" />
<glyph unicode="I" horiz-adv-x="335" d="M-139 16q0 4 28.5 15.5t108.5 36.5v387q0 135 2 244.5t6 202.5t10.5 174t14.5 161q4 35 6 64.5t4 35.5q0 18 -8 19q-59 -10 -80 -10t-35 10q-18 12 -14 20t19.5 14t33.5 7.5t29 3.5q10 2 36.5 7t61.5 10t74 9.5t72.5 6.5t59 0t34.5 -11q5 -5 5 -10q0 -16 -65 -22 q-39 -4 -60.5 -6.5t-30.5 -7.5t-9 -12t4 -22q4 -20 5 -72q0 -26 0.5 -57.5t-0.5 -67.5q-1 -73 -6 -160t-13 -179q-12 -154 -19.5 -245t-11.5 -149.5t-6 -96t-4 -87.5l-7 -127l21 7q10 4 29.5 7t40.5 7q29 6 41 5t20 -9q6 -6 7 -9.5t-8 -7.5t-31.5 -13t-67.5 -23 q-31 -10 -42.5 -18.5t-13.5 -18.5q-10 -29 -33.5 -37t-52.5 16q-10 6 -61 -6q-29 -10 -43 -10t-29 6q-23 10 -22 18z" />
<glyph unicode="J" horiz-adv-x="821" d="M-11 1064q-3 9 25 38q16 18 56.5 54t119.5 101q61 53 110.5 94.5t55.5 47.5t17.5 14t21.5 12q2 2 4 2q27 18 49.5 11.5t38.5 -19.5q41 -31 56 -139v2q14 -98 17 -210q2 -55 2 -109t-2 -107q-3 -104 -10 -190t-13 -136q51 18 97 33t85 26t65.5 18t38.5 7q13 0 33 -8 q23 -8 35 -16q10 -8 11 -16.5t-21 -14.5q-16 -6 -56 -18q-29 -10 -84 -32t-104 -44q-29 -12 -54.5 -22.5t-47.5 -20.5q-8 -127 -24.5 -222.5t-36 -162t-36 -105t-24.5 -53.5q-23 -47 -49 -80q-37 -47 -101 -63q-25 -7 -49 -7q-37 0 -72 15q-123 51 -151 225q-6 33 -6 68 q0 53 13 111q21 96 81 167l33 35q10 12 35.5 35t54.5 37l49 24q57 25 143 52v2q6 68 6 82v14l5 61q2 27 4 85.5t2 129v147.5t-1 139.5t-4.5 104.5t-5.5 44q-1 1 -2 1q-15 0 -133 -96q-27 -23 -53.5 -43t-50 -37.5t-40 -29.5t-24.5 -17q-18 -12 -41 -20q-31 -10 -49 -10 q-16 0 -19 9zM90 -6q4 -74 17.5 -114t44.5 -73q30 -30 54 -30q1 0 2 1q25 1 58 36q25 27 43.5 65.5t32.5 98t24.5 142t16.5 193.5q0 16 1 34t3 34q-47 -16 -104.5 -43t-110.5 -80q-49 -53 -68 -116q-15 -51 -15 -118q0 -15 1 -30z" />
<glyph unicode="K" horiz-adv-x="997" d="M-45 125v8q4 61 13 161.5t18.5 209t19.5 208t17 158.5q23 207 54.5 368t63.5 241q29 82 52.5 99t42.5 3q23 -16 38 -63q4 -10 1 -33t-13 -82q-18 -98 -29.5 -162.5t-19.5 -120t-15.5 -113t-17.5 -139.5q-14 -96 -21 -163.5t-5 -67.5q4 0 45 59.5t96 145.5 q45 68 109.5 158t127 173.5t113.5 151.5t74 92l6 6q25 29 43 37t31 4q14 -4 22 -20q0 -2 1 -3t1 -3q6 -14 -20 -47q-33 -41 -86 -112t-103.5 -140.5t-86 -120.5t-35.5 -55q0 -2 13 -3.5t34 -1.5q66 0 91 -26q23 -25 23 -83v-9q-2 -20 -12 -84t-25 -135q-33 -154 -51 -265.5 t-24 -197.5q-3 -43 -3 -81q0 -37 3 -71q6 -66 24 -127q10 -31 14.5 -38t14.5 1q16 14 71.5 110.5t153.5 287.5q35 63 56.5 104t35.5 68l88 194q6 8 15 10q6 2 15 -3t24 -21q-8 -35 -23 -76q-12 -35 -31.5 -84t-48.5 -106q-29 -68 -67.5 -152t-76.5 -160.5t-71 -134 t-49 -76.5q-48 -52 -104 -52q-8 0 -16 1q-64 8 -103 80q-29 53 -41 117.5t-12 165.5q0 49 3 97t10 104.5t19.5 128t30.5 169.5q14 76 23.5 126.5t13.5 80t5 41.5t-1 12q-4 0 -22.5 -13t-42 -31.5t-47 -40t-40.5 -37.5q-43 -45 -88 -121t-86 -169t-75.5 -196.5t-57.5 -204.5 q-4 -12 -10 -18q-4 -4 -20.5 -23.5t-35 -23.5t-30.5 20q-7 15 -7 51q0 24 3 58z" />
<glyph unicode="L" horiz-adv-x="780" d="M-141 0q6 14 6 23l29 79l30 123q6 25 16.5 73t23.5 108.5t27.5 129t28.5 136.5q39 197 67 327.5t46.5 211.5t27.5 119t15 46q4 14 27.5 15.5t46.5 -11.5q11 -7 11 -63v-9q-1 -64 -12 -160.5t-29.5 -213.5t-41 -230.5t-46 -212t-42.5 -159.5l49 -41q16 -10 45 -36 t62 -57.5t68.5 -64.5t68.5 -59q23 -18 34 -22.5t29 3.5q31 16 85.5 92t140.5 226l63 108q45 90 70.5 115t38.5 16q14 -8 16 -49q2 -6 -10 -36.5t-32.5 -75.5t-48.5 -98.5t-54.5 -103.5t-51 -92t-40.5 -63q-41 -59 -86 -85.5t-103 -26.5q-18 0 -36.5 3t-44 19t-63.5 48 t-97 91l-95 80l-32 25l-107 -316q-18 0 -45 12.5t-55 55.5z" />
<glyph unicode="M" horiz-adv-x="1697" d="M2 526q-1 34 -1 70t1 74q2 76 7 153.5t14.5 155.5t21.5 145v4q20 121 39.5 180.5t36 77t31 3t24.5 -39t15 -49t6 -30.5q-14 -109 -24.5 -247t-16.5 -272.5t-6 -247t6 -169.5l6 -49l20 63q29 88 73 189.5t93 196.5t96.5 172t83.5 118q23 27 35 33t43 6t49.5 -9.5t27.5 -37 t9 -78.5t-4 -137q-4 -70 -7 -129.5t-3 -103.5t2 -68.5t6 -24.5t27.5 45t54.5 109q49 96 103.5 190t107.5 178t103.5 153t93.5 116q41 47 62.5 62t53.5 22q15 4 28 4q40 0 71 -31q12 -11 15 -37q1 -11 1 -26q0 -20 -2 -48q-4 -48 -18.5 -120t-36.5 -179 q-23 -109 -40.5 -190.5t-30.5 -152t-24.5 -135t-21.5 -136.5q-6 -43 -10 -79t-5 -75t-2.5 -88t-1.5 -120q0 -168 9.5 -248t25.5 -80q2 0 8.5 10t18.5 37t30.5 74t49.5 123q45 117 98 240.5t102.5 229t87 178t52.5 87.5q24 20 55 26q10 2 20.5 0t0.5 -18q-4 -10 -13.5 -29.5 t-21.5 -44.5q-33 -66 -85.5 -189.5t-115.5 -285.5q-63 -166 -101 -261t-62.5 -146.5t-42 -72t-40.5 -34.5q-26 -18 -53 -18q-16 -1 -32 5q-44 16 -66 66q-31 68 -47.5 162t-21.5 209q-2 44 -2 91q0 75 5 156q8 132 31 275q6 45 16 99.5t24.5 122t34 151.5t44.5 192 q16 72 27.5 126.5t9.5 58.5q-2 6 -17.5 -9.5t-39 -45t-52.5 -67.5t-55 -79q-35 -51 -65 -99t-59.5 -100.5t-60 -112t-67.5 -134.5q-18 -37 -34.5 -72t-31 -62.5t-25 -47t-12.5 -23.5q-16 -23 -52 -33t-60 0q-45 23 -61 123q-9 56 -8 141q0 66 5 148q4 66 6 117t0 55 q-2 6 -19 -19.5t-42 -66.5t-51.5 -90.5t-46.5 -92.5q-23 -49 -44.5 -101t-45 -116.5t-49 -147.5t-58.5 -190q-10 -33 -19.5 -59.5t-13.5 -30.5q-8 -12 -27.5 -16t-39 -3t-37 8t-21.5 20q-4 12 -12 73.5t-17.5 139t-16.5 158.5t-9 132z" />
<glyph unicode="N" horiz-adv-x="1136" d="M-2 727q0 186 16.5 357t46.5 319q8 41 29 43q23 4 35 1t16 -22.5t1 -63.5t-11 -124q-10 -106 -17.5 -195.5t-11.5 -166t-5 -147.5v-47q0 -47 1 -93q4 -72 7.5 -144.5t11.5 -132.5l28 107q33 123 73 228.5t87 197.5t104.5 174t127.5 160q57 66 97 91q34 22 70 22 q6 0 11 -1q41 -2 63.5 -19.5t28.5 -71.5q3 -23 2 -54q0 -43 -4 -99q-8 -98 -29 -260q-47 -376 -52 -620q-1 -30 -1 -60q0 -200 31 -311q6 -20 12 -34.5t10 -16.5q10 -6 37 48t64 163q27 80 57.5 157.5t59 147.5t55 126t47.5 91q23 45 33 69.5t16 39t11.5 19.5t19.5 9t16 -12 t-2 -38.5t-11.5 -46t-11.5 -34.5q-10 -20 -32.5 -74.5t-49 -124t-55.5 -145.5t-49 -139q-31 -90 -54.5 -147.5t-42 -92t-37 -51t-40.5 -22.5q-19 -6 -36 -6q-61 0 -103 79q-14 31 -25.5 86.5t-20 126t-11.5 152.5q-1 35 -1 71q0 47 2 95q2 70 6.5 133t11.5 133t18 154 t28 194q23 152 30 242q3 42 3 67q0 28 -4 33q-4 2 -23.5 -14t-47.5 -43t-56.5 -58.5t-49.5 -58.5q-57 -78 -104 -157.5t-87 -172t-75 -201t-67 -243.5q-23 -94 -35.5 -137t-20.5 -60q-12 -27 -24 -36q-10 -10 -25.5 -6.5t-30.5 42.5q-10 29 -24 127q-10 76 -17.5 135.5 t-11.5 115t-6 113.5t-2 134z" />
<glyph unicode="O" horiz-adv-x="796" d="M-53 1019q14 142 94 226q29 29 55.5 45.5t73.5 28.5q32 8 74 8q12 0 26 -1q60 -3 101 -19q25 -8 50 -25.5t49 -40t43 -49.5t32 -51q16 -37 27.5 -69t17.5 -67.5t8 -79.5t2 -104q0 -111 -17.5 -232.5t-45.5 -226.5q-8 -25 -12.5 -44t-2.5 -21t13.5 4t27.5 16q39 23 81 69 t99 124q14 20 28.5 37.5t25.5 32.5q20 27 31.5 32.5t17.5 1.5t9 -13q3 -10 3 -18q0 -19 -47 -87q-90 -141 -176 -199q-27 -18 -62.5 -32.5t-58.5 -16.5q-2 0 -14.5 -22.5t-26.5 -55.5q-59 -139 -119.5 -203.5t-146.5 -81.5q-12 -3 -24 -3q-33 0 -64 20q-43 28 -70 78 q-29 55 -42 135t-17 217q-1 36 -1 72q0 38 1 74q2 74 6 108q2 27 4 44t1 31.5t-4 26.5t-9 29q-44 128 -44 244q0 29 3 58zM34 904q1 -26 5 -25q4 0 10 17t12 44q8 29 23.5 63.5t33 69.5t35 64.5t33.5 48.5q25 29 56.5 44t54.5 7q16 -4 16 -14.5t-20 -44.5q-10 -18 -24.5 -52 t-30 -73t-28.5 -80t-24 -78q-8 -31 -18 -76t-18.5 -91t-14.5 -83t-6 -49q0 -10 12.5 -34.5t32 -53.5t42 -58.5t42.5 -50.5q23 -23 53.5 -47t53.5 -37l55 -28l8 32q33 125 51.5 243t21.5 222q1 19 1 37q0 82 -12 153q-14 87 -41 148q-25 53 -51.5 83t-65.5 50 q-47 23 -96.5 23t-90.5 -27q-112 -69 -112 -280q0 -41 1 -67zM113 344q0 -66 4 -129t13 -116.5t21.5 -92.5t26.5 -55q10 -10 16.5 -11t22.5 7q12 6 27.5 20.5t33 31.5t33 38t25.5 39q8 14 19.5 39.5t21.5 51.5t18 47.5t8 27.5q0 4 -10 9t-26 9t-39 14.5t-39 20.5t-47 35.5 t-60 54.5l-69 68v-109z" />
<glyph unicode="P" horiz-adv-x="862" d="M0 681q0 103 2 195.5t5 166t9 112.5q12 82 25.5 143.5t26.5 87.5q0 6 2 9q23 31 43 39q16 8 30.5 -3.5t16.5 -64.5q4 -16 2 -52t-6 -104q-4 -66 -7.5 -125t-3.5 -75v-39l31 67q51 117 117.5 203t132.5 121q8 4 26.5 8t36.5 8q9 1 17 1q121 0 176 -160q8 -27 13 -78 q4 -42 4 -91v-20q-1 -60 -6 -119t-15 -98q-18 -76 -48 -145.5t-65 -122.5l-39 -56l47 -22q31 -14 54.5 -19.5t47 3t52.5 32t74 64.5q49 45 68.5 58t35.5 13q41 -2 39 -18t-45 -65q-41 -47 -70.5 -76t-57.5 -44.5t-57.5 -20.5t-68.5 -5q-33 0 -56.5 5t-56.5 22q-37 16 -49 19 t-22 -5q-23 -16 -68 -37.5t-76 -32.5q-34 -9 -72 -9h-7q-42 1 -72 18l-29 14l4 -90q7 -153 11 -227q2 -35 2 -59q0 -28 -2 -44q-6 -41 -20.5 -50t-30 -3t-30 18.5t-18.5 18.5q-2 0 -2 2h-2q-6 12 -14 61t-19 148q-6 53 -9 138t-5 183.5t-2 201.5zM136 619.5q-1 -31.5 3 -50 t15 -14.5q52 23 114 24h7q58 0 112 -18l51 -18l21 32q41 66 69.5 148t42.5 172q5 39 7 90q0 15 1 31q-1 36 -3 72q-4 52 -9.5 96.5t-13.5 68.5q-20 57 -32.5 64.5t-47.5 -12.5q-104 -66 -183 -201t-126 -322q-12 -45 -19.5 -88t-8.5 -74.5zM183 439.5q3 -17.5 19.5 -29 t43.5 -4.5q12 2 33.5 12t45 23.5t42 26.5t22.5 21q4 6 -41 23q-39 11 -70 11q-33 0 -55 -13q-25 -12 -34 -32.5t-6 -38z" />
<glyph unicode="Q" horiz-adv-x="927" d="M-2 725q0 55 1 90t3 60.5t7 47t14 50.5q20 80 44.5 139t63.5 119q53 80 115 120q60 38 134 38h7q51 -2 88 -17.5t39 -38.5q0 -10 -19.5 -10t-48.5 4q-31 6 -56 -2t-66 -41q-49 -37 -96.5 -127t-77.5 -201q-10 -37 -15.5 -91t-7.5 -113q-1 -24 -1 -48q0 -35 2 -70 q3 -59 9 -106q14 -96 38 -179t50.5 -144.5t55 -97t55.5 -35.5q18 0 41.5 10t47.5 26.5t45.5 38t35.5 43.5l16 29l-26 66q-69 156 -69 214q0 7 1 13q10 29 25 41q12 10 29.5 4t41.5 -53q10 -10 18.5 -25.5t18.5 -36.5q12 -27 21.5 -44t13.5 -17q2 0 8 15.5t14.5 40t15.5 53 t13 53.5q8 37 13.5 86t7.5 100q1 34 1 68v35q-1 51 -3 94q-20 221 -73.5 334.5t-160.5 156.5q-51 20 -35 37q10 6 47 2q18 -2 48 -14t62 -29.5t60.5 -37t47.5 -38.5q115 -119 133 -485q1 -31 1 -61q0 -119 -18 -236q-24 -147 -73 -258q-14 -29 -24.5 -55.5t-12.5 -34.5 q-2 -6 14 -55.5t39 -112.5q23 -61 39 -106.5t14 -49.5q-6 -6 -37 -6t-57.5 28.5t-63.5 104.5l-36 78l-37 -31q-41 -31 -91 -46q-45 -13 -89 -13h-12q-50 2 -96 20.5t-79 53.5q-98 106 -153 377q-8 37 -13.5 64.5t-7.5 56t-3 64.5t-1 91z" />
<glyph unicode="R" horiz-adv-x="901" d="M-11 1006q1 114 7 209.5t18.5 167t28.5 112.5q4 6 8 14.5t10 12.5t24.5 11t35.5 -9l8 -8q2 -4 4 -10.5t4 -14.5q4 -12 3 -41t-5 -80q-2 -23 -4 -54.5t-4 -66.5t-4 -70.5t-2 -66.5l-4 -151l26 73q27 76 63 148.5t77 133t83 106.5t83 69q37 23 85 28q12 1 23 1q32 0 53 -11 q44 -23 50 -75q1 -8 1 -17q0 -47 -24 -109q-29 -74 -91.5 -162.5t-154.5 -184.5q-35 -35 -54.5 -59.5t-12.5 -20.5q136 53 202 56h7q61 0 92 -44q13 -20 13 -66q0 -11 -1 -25q-4 -66 -31 -192q-16 -80 -27.5 -142t-17.5 -116.5t-9 -106.5t-3 -112q0 -129 13 -207 q12 -72 32 -72q2 0 4 1q2 0 12.5 23.5t27.5 62.5t38.5 91t46.5 111q43 106 72.5 181t51 125.5t34 80t20.5 45.5q12 29 24.5 36t22.5 4t16.5 -12t8.5 -11q2 -1 2 -6q0 -29 -53 -183q-59 -172 -100.5 -284.5t-70 -180t-49 -99.5t-38.5 -40q-16 -8 -62 -8q-16 0 -26.5 1 t-18.5 5t-17.5 11.5t-21.5 21.5q-25 27 -41 61.5t-27 82.5q-10 48 -13 114q-1 28 -1 61q0 43 2 93q4 131 20.5 250.5t51.5 261.5q6 25 10 50t4 42v33l-32 -7q-12 -2 -55.5 -17t-93.5 -34.5t-97 -38t-68 -28.5l-31 -17l-12 -94q-4 -49 -6 -117q-1 -23 -1 -51q0 -55 3 -127 q4 -84 4 -147.5t-4 -71.5q-2 -4 -2 -5t-4 -5t-14.5 -15.5t-23.5 -16.5t-25.5 6t-20.5 52q-6 27 -12 89.5t-13.5 145.5t-13.5 182.5t-10 203.5q-3 100 -3 193v47zM178 883q0 -6 16.5 7t41 37.5t53 55.5t53.5 61q59 72 107.5 147t72.5 132q27 70 25 102l-2 37l-35 -26 q-33 -25 -68.5 -63t-70.5 -84t-66 -97t-53 -100q-12 -25 -24.5 -59t-23.5 -64.5t-18.5 -55t-7.5 -30.5z" />
<glyph unicode="S" horiz-adv-x="831" d="M-2 43q0 76 30.5 150.5t85 140t128 118t164.5 85.5l51 18l-33 76q-14 33 -38 81t-52.5 100t-59 107.5t-59.5 104.5q-25 39 -46.5 80t-27.5 59q-16 41 -16 84t16 78q18 43 59 71q42 28 89 36q20 4 40 3q28 -1 56 -7q49 -12 86 -44q38 -37 38 -85q0 -9 -1 -17 q-4 -6 -11.5 -15.5t-18.5 -11.5t-24.5 6.5t-29.5 38.5q-4 6 -12 23q-18 39 -58 57q-15 7 -30 6q-25 0 -52 -18q-37 -25 -47 -78q-3 -16 -3 -32q0 -38 16 -78q6 -16 30.5 -60.5t53.5 -89.5q53 -86 106 -183t98 -192q16 -33 27.5 -54t13.5 -19t14.5 4t28.5 6q25 2 63 8 t76.5 10t72.5 4t52 -10q20 -10 13 -18q-4 -4 -45 -14.5t-86 -16.5q-78 -10 -125 -17.5t-47 -11.5t4 -17t10 -34q10 -31 18.5 -74t14.5 -87t10 -88t4 -76q0 -123 -27.5 -202t-89.5 -136q-47 -40 -105 -58q-43 -13 -88 -14q-15 0 -31 2q-60 6 -119.5 32.5t-104.5 75.5 q-47 47 -64.5 90.5t-17.5 102.5zM106 88q-5 -28 -5 -54q0 -27 5 -52q10 -47 40 -87t68 -66t81 -34q14 -3 28 -3q27 0 52 11q162 65 162 318q0 95 -23 217q-8 35 -15 70.5t-12 52.5q-4 16 -9 26.5t-9 10.5q-6 0 -27.5 -10.5t-49 -26t-54.5 -32.5t-45 -32q-49 -37 -88 -88 t-64 -107.5t-35 -113.5z" />
<glyph unicode="T" horiz-adv-x="501" d="M-215 1364q0 2 14 12q12 10 55.5 22.5t90.5 16.5q35 4 45 8q0 2 54 1t136 -1t176.5 -2t177 -3t139 -3t60.5 -4q16 -4 17 -16q0 -6 -9.5 -10.5t-37 -7.5t-75.5 -5t-126 -4q-72 -2 -123 -4t-51 -4q-2 -2 -4 -77t-2 -207v-315t2 -405l4 -489l-31 -6q-16 -4 -27.5 -1 t-25.5 13q-25 16 -21 25q0 2 -1 27.5t-3 68.5t-6 99.5t-8 119.5q-8 96 -12.5 169t-7.5 140.5t-4 142t-1 173.5q0 117 1 195.5t5 135t11.5 96.5t17.5 81l6 20l-149 -4q-61 -2 -114.5 -5t-66.5 -5q-12 -4 -27.5 -5t-25.5 -6q-25 0 -39 11q-14 10 -14 12z" />
<glyph unicode="U" horiz-adv-x="1013" d="M-2 514q0 76 4 152.5t10 136.5q16 127 42 246.5t55 197.5q25 74 45 102.5t35.5 29.5t24.5 -15t9 -31q1 -5 1 -11q0 -46 -25 -171q-23 -117 -39.5 -214t-25.5 -180t-14 -158t-5 -148q0 -45 2 -92.5t6 -85t9 -64.5t9 -31t13.5 7.5t28 45t47 92t69.5 148.5q29 61 68 143 t83 170t87 175.5t79.5 158t61 117.5t33.5 55q10 14 32.5 23.5t34.5 5.5q38 0 48 -33q7 -23 7 -52q1 -12 -1 -25q-4 -44 -15.5 -87t-17.5 -63q-12 -61 -26.5 -137t-30 -153t-29 -151.5t-21.5 -132.5q-8 -45 -12 -79.5t-7 -68.5t-4 -74t-1 -95q0 -139 10 -206.5t29.5 -78.5 t46 28.5t58.5 112t67.5 171t74.5 206.5q27 72 40.5 111t21.5 59q8 29 17 38t17.5 6t13.5 -12t7 -15q4 -6 1 -29.5t-23.5 -90.5t-59.5 -188.5t-106 -324.5q-33 -98 -72 -143t-94 -45q-47 0 -84 47t-59.5 125.5t-30.5 182.5q-3 42 -3 86q0 66 7 136q4 35 11 87t16.5 113.5 t19.5 126t20.5 124t19.5 106.5t15 76q10 37 15.5 65.5t3.5 28.5q-2 2 -30 -53t-65.5 -138t-79.5 -178.5t-73 -171.5q-59 -143 -97 -229t-66 -133t-50.5 -63.5t-48.5 -18.5q-8 -1 -16 -1q-51 0 -79 34q-32 39 -51 143q-8 41 -11 108.5t-3 143.5z" />
<glyph unicode="V" horiz-adv-x="862" d="M-47 1139q0 104 3 166.5t11 78.5q6 14 17.5 18.5t23.5 0.5t20.5 -14.5t8.5 -24.5q0 -6 4 -62.5t8 -130.5q8 -125 23.5 -259t34 -261t40 -238.5t41.5 -189.5q6 -29 16.5 -57.5t19.5 -51t18.5 -38t13.5 -15.5q23 0 86.5 127t161.5 390l-12 79q-18 109 -26 215q-7 93 -6 175 v22q1 92 12 167t32 122q16 39 31.5 53t44.5 25q23 8 48 3t42 -18q16 -14 31.5 -50t23.5 -77q9 -51 9 -112q0 -72 -12 -158q-24 -160 -89 -352q-12 -39 -21.5 -71t-9.5 -36q0 -8 8 -28.5t18.5 -42t23 -41t20.5 -25.5l18 -16l74 73q25 27 47 54.5t51 56.5q31 25 37 20.5 t2 -21.5t-16.5 -38.5t-18.5 -32.5q-20 -29 -43.5 -56.5t-46 -50t-42 -36.5t-32.5 -16q-11 -2 -22 -2q-55 0 -98 51l-29 35l-45 -111q-49 -117 -84 -180.5t-70 -98.5q-51 -51 -101 -51t-89 49q-39 51 -76 169t-66.5 270.5t-49 321.5t-19.5 321zM556 970v-25q0 -48 3 -77 q4 -37 14.5 -33.5t26.5 70.5q29 119 39 209q5 45 5 85.5t-5 76.5q-10 76 -22.5 84t-22.5 -24.5t-18.5 -96t-13.5 -133.5t-6 -136z" />
<glyph unicode="W" horiz-adv-x="1284" d="M2 526q-1 41 -1 85q0 76 4 159q7 131 20.5 248t33 201t39.5 100q16 20 31.5 18t20.5 -6q6 0 6 -2q10 -4 15 -10t5 -23.5t-4 -49.5t-12 -83q-16 -86 -25.5 -156.5t-14.5 -138t-7 -140.5t-2 -167v-124t2 -87t5 -63.5t7 -50.5q6 -35 15.5 -69t17.5 -61.5t15 -47t11 -21.5 q6 -4 13.5 3t17.5 28.5t24.5 59.5t34.5 95q45 127 90.5 233.5t79.5 170.5q20 37 31.5 49t34.5 20q18 5 33 5q44 0 63 -44q4 -10 15.5 -63t23.5 -121q12 -70 21.5 -122t19.5 -95t21.5 -81t25.5 -79q10 -31 25.5 -65.5t30 -63t25.5 -48t15 -19.5q10 0 23.5 38.5t29 103t31 151 t27.5 182.5q4 31 -12 53q-29 41 -61.5 122t-86.5 241q-33 100 -53 167.5t-30.5 114.5t-13.5 83q-2 22 -2 44q0 15 1 31q2 129 59 158q24 14 52 13q19 0 41 -6q52 -16 94 -63q86 -98 114 -312q14 -106 15 -239q0 -135 -15 -299q-4 -31 -5 -48t0 -27.5t5.5 -16.5t10.5 -12 q10 -10 21 -19.5t22 -15.5q16 -8 24 -5t29 28q12 14 35.5 52t46.5 77q16 27 27.5 45t19.5 30q23 37 36 43.5t21 -2.5q9 -7 13 -32q2 -4 -8.5 -30t-27 -59.5t-36 -67.5t-35.5 -56q-12 -18 -29.5 -35t-29.5 -23q-29 -16 -70 -16t-63 14l-21 15l-16 -105q-35 -231 -85 -318 q-38 -67 -95 -67q-17 0 -35 6q-33 10 -68 59.5t-68.5 126t-62.5 173t-47 202.5q-14 78 -20.5 117t-12.5 48t-14 -9t-25 -53q-16 -33 -39.5 -92.5t-42.5 -108.5q-18 -53 -37.5 -106.5t-29.5 -77.5q-35 -92 -82 -129q-29 -22 -58 -22q-19 0 -40 9q-29 14 -54.5 60.5t-44 117 t-32 166t-17.5 207.5zM750 1238q0 -36 9 -85t27.5 -116.5t49.5 -159.5q37 -111 58 -175.5t33.5 -96.5t17.5 -38t9 4t6.5 69.5t2.5 132.5t-2.5 141.5t-6.5 97.5q-31 211 -102 307q-30 38 -52 38q-26 0 -40 -54q-10 -29 -10 -65z" />
<glyph unicode="X" horiz-adv-x="694" d="M-88 -162q-3 6 -2 16q0 22 12 62q6 27 20.5 83t36 130t47 159t52.5 173l59 182l-41 164q-45 190 -65.5 325.5t-22.5 243.5q0 41 1 65.5t2 39t4 20.5t10 10q14 10 36.5 8.5t34.5 -14.5q4 -4 13.5 -47t17.5 -96q18 -121 28.5 -195.5t17.5 -121t11 -74t11 -51.5 q4 -29 8 -50.5t4 -23.5q0 -4 16.5 26.5t40.5 73.5q31 59 67 119.5t72.5 114t70.5 96.5t61 67q14 14 33.5 23.5t33.5 13.5q20 6 29 0q8 -4 7 -18t-24 -49q-12 -25 -36 -62q-61 -102 -129 -234t-127 -265l-56 -125l10 -52q4 -23 22.5 -83t41.5 -125q78 -238 160 -359l28 -41 l13 23q4 10 17 60t30 112q18 88 47 194.5t53 190.5q8 31 19.5 46t21.5 19t19.5 1t13.5 -9q12 -24 12 -58q0 -7 -1 -15q-3 -44 -15.5 -91t-26.5 -92t-20 -74q-20 -86 -32.5 -139t-22 -86t-17.5 -50t-16 -36q-26 -54 -83 -54q-14 0 -30 3q-35 6 -75 46t-81 105.5t-81 154.5 t-72 194q-4 8 -5 8t-8 -8q-2 -4 -12 -32t-24.5 -70t-31 -92t-31.5 -100t-28.5 -95.5t-21.5 -75.5q-29 -102 -45 -111q-33 -18 -55 -18q-19 0 -27 20z" />
<glyph unicode="Y" horiz-adv-x="1062" d="M-17 721q-1 24 -1 52q0 38 2 85q2 43 4 75t5 58.5t7 51t10 51.5q20 78 51 161.5t62 141.5q27 49 49 71q25 31 38 36t21 -1q8 -8 11 -28q4 -4 -9.5 -49.5t-33.5 -106.5q-72 -213 -101 -376q-18 -104 -18 -182q0 -44 6 -79l12 -66l52 54q37 39 96 115.5t124.5 166.5 t128 185.5t109.5 173.5q27 41 44.5 68.5t29.5 41.5q18 27 36.5 34t32 4t22.5 -10t13 -11q6 -4 10.5 -21.5t6.5 -52.5t3 -93.5t1 -146.5q0 -104 3 -206.5t8 -182.5t10.5 -128t11.5 -44q10 4 22 8q6 2 25 6.5t39 10.5q37 12 75.5 18t70.5 8t51.5 -1t19.5 -11q0 -12 -80 -33 q-33 -10 -77 -21t-75 -22l-71 -22v-197v-103t-2 -73t-5.5 -55.5t-9.5 -50.5q-27 -119 -79 -201t-123 -119q-18 -8 -30.5 -13t-27 -8t-33 -4.5t-47.5 -1.5t-46 1.5t-31.5 3.5t-26.5 7t-29 13q-80 39 -125 123q-10 18 -14 48t-4 62.5t4 65.5t14 57q20 55 60.5 111.5t94.5 110 t119.5 101.5t137.5 87l70 37l-5 37q-10 74 -17 132t-11 112.5t-7 108.5t-5 116l-5 192l-96 -143q-102 -152 -178 -254t-134.5 -161.5t-102.5 -81.5q-30 -14 -58 -14q-13 0 -25 3q-27 6 -43 24.5t-25 53.5t-12 90zM301 -78q4 -61 22.5 -100t55.5 -68q47 -35 95 -35t92 30 t79 86t55 134q14 57 20 147q2 42 2 89q0 52 -3 108q-4 49 -7 85t-7 36q-8 0 -38 -19.5t-68 -47t-75 -58t-59 -53.5q-92 -92 -130 -170q-34 -71 -34 -148v-16z" />
<glyph unicode="Z" horiz-adv-x="886" d="M-124 47q-4 23 -4 47q0 30 6 60q11 56 44 106q37 59 108.5 118.5t153.5 100.5q14 8 41 18.5t54.5 20.5t51 18.5t34.5 10.5q8 2 38.5 7t65.5 11t65.5 11.5t38.5 7.5q20 2 25.5 11t11.5 54q4 29 8 74q1 19 1 37q0 27 -3 55q-4 94 -21 152.5t-54 97.5q-23 23 -36 29t-48 6 q-23 0 -51.5 -6.5t-58.5 -15.5t-59.5 -21.5t-49.5 -24.5q-16 -10 -41 -30.5t-45 -40.5q-20 -18 -40 -33t-28 -17q-20 -4 -25 -8q-2 -2 -11 0t-19.5 7t-18.5 10.5t-8 9.5t8 13t19 20q12 10 42.5 43.5t71.5 78.5t85 95.5t84 95.5t68 77.5t36 45.5q40 56 40 65t-44 2 q-31 -4 -73 -16t-88 -28.5t-90 -38t-81 -42.5q-33 -18 -48.5 -24t-31.5 -2q-23 6 -23 14t23 25q29 20 76 43.5t98 45t100.5 37t83.5 21.5q16 4 27.5 6t11.5 4q2 2 18.5 2h39.5q80 -1 90 -33q2 -5 2 -11q0 -34 -45 -105q-16 -25 -46 -62.5t-55 -66.5q-35 -41 -53 -62.5 t-24.5 -29.5t-2 -8t12.5 4q67 21 125 21q45 0 85 -12q93 -28 142 -114q38 -66 54 -161q10 -57 9 -114q0 -38 -4 -75q-4 -31 -6 -54.5t0 -25.5t34 0t79 6q45 4 80 5t39 -1q14 -4 11 -20t-19 -23q-10 -2 -47 -6t-85 -8l-108 -10l-6 -31q-8 -35 -24.5 -82t-38 -96t-46 -98.5 t-49.5 -85.5q-66 -104 -133.5 -168t-149.5 -97q-81 -34 -154 -34t-138 34q-45 23 -72 65t-36 93zM-15 116.5q-1 -30.5 2 -59t11 -49.5q23 -60 82 -78q20 -6 41 -6q43 0 92 23q35 16 74 49t75.5 79t70.5 100t63 114q12 25 26.5 62.5t28.5 73.5t23.5 64.5t9.5 34.5t-11 6 q-25 -2 -63.5 -9t-80.5 -17t-80 -22.5t-62 -22.5q-41 -18 -84 -47t-81 -61t-67.5 -65.5t-44.5 -62.5q-10 -20 -17 -48t-8 -58.5z" />
<glyph unicode="[" d="M72 37v1364h3608v-1364h-3608zM256 223h3238v994h-3238v-994zM473 393v647h297q86 0 141 -24q51 -23 90 -68q16 -23 29.5 -49.5t22.5 -54.5q16 -61 16 -125q0 -104 -25 -162q-25 -57 -65 -96q-23 -18 -44.5 -31.5t-45.5 -19.5q-33 -10 -62.5 -13.5t-56.5 -3.5h-297z M672 539h49q33 0 54.5 4t35.5 10q27 16 41 49q14 31 14 113q0 102 -32 141q-35 37 -111 37h-51v-354zM1174 393v647h534v-139h-334v-102h312v-133h-312v-127h344v-146h-544zM1825 393v647h262l102 -395l101 395h262v-647h-164v494l-125 -494h-149l-125 494v-494h-164z M2654 715q0 156 88 248q88 88 246 88q164 0 250 -86q88 -92 88 -244q0 -115 -39 -186q-37 -72 -111 -113q-72 -41 -180 -41q-106 0 -180 35q-70 35 -117 110q-45 76 -45 189zM2855 715q0 -98 37 -142q37 -43 98 -43q63 0 100 43q35 41 35 150q0 92 -37 133q-37 43 -100 43 q-59 0 -96 -43t-37 -141z" />
<glyph unicode="\" d="M72 37v1364h3608v-1364h-3608zM256 223h3238v994h-3238v-994zM473 393v647h297q86 0 141 -24q51 -23 90 -68q16 -23 29.5 -49.5t22.5 -54.5q16 -61 16 -125q0 -104 -25 -162q-25 -57 -65 -96q-23 -18 -44.5 -31.5t-45.5 -19.5q-33 -10 -62.5 -13.5t-56.5 -3.5h-297z M672 539h49q33 0 54.5 4t35.5 10q27 16 41 49q14 31 14 113q0 102 -32 141q-35 37 -111 37h-51v-354zM1174 393v647h534v-139h-334v-102h312v-133h-312v-127h344v-146h-544zM1825 393v647h262l102 -395l101 395h262v-647h-164v494l-125 -494h-149l-125 494v-494h-164z M2654 715q0 156 88 248q88 88 246 88q164 0 250 -86q88 -92 88 -244q0 -115 -39 -186q-37 -72 -111 -113q-72 -41 -180 -41q-106 0 -180 35q-70 35 -117 110q-45 76 -45 189zM2855 715q0 -98 37 -142q37 -43 98 -43q63 0 100 43q35 41 35 150q0 92 -37 133q-37 43 -100 43 q-59 0 -96 -43t-37 -141z" />
<glyph unicode="]" d="M72 37v1364h3608v-1364h-3608zM256 223h3238v994h-3238v-994zM473 393v647h297q86 0 141 -24q51 -23 90 -68q16 -23 29.5 -49.5t22.5 -54.5q16 -61 16 -125q0 -104 -25 -162q-25 -57 -65 -96q-23 -18 -44.5 -31.5t-45.5 -19.5q-33 -10 -62.5 -13.5t-56.5 -3.5h-297z M672 539h49q33 0 54.5 4t35.5 10q27 16 41 49q14 31 14 113q0 102 -32 141q-35 37 -111 37h-51v-354zM1174 393v647h534v-139h-334v-102h312v-133h-312v-127h344v-146h-544zM1825 393v647h262l102 -395l101 395h262v-647h-164v494l-125 -494h-149l-125 494v-494h-164z M2654 715q0 156 88 248q88 88 246 88q164 0 250 -86q88 -92 88 -244q0 -115 -39 -186q-37 -72 -111 -113q-72 -41 -180 -41q-106 0 -180 35q-70 35 -117 110q-45 76 -45 189zM2855 715q0 -98 37 -142q37 -43 98 -43q63 0 100 43q35 41 35 150q0 92 -37 133q-37 43 -100 43 q-59 0 -96 -43t-37 -141z" />
<glyph unicode="^" d="M72 37v1364h3608v-1364h-3608zM256 223h3238v994h-3238v-994zM473 393v647h297q86 0 141 -24q51 -23 90 -68q16 -23 29.5 -49.5t22.5 -54.5q16 -61 16 -125q0 -104 -25 -162q-25 -57 -65 -96q-23 -18 -44.5 -31.5t-45.5 -19.5q-33 -10 -62.5 -13.5t-56.5 -3.5h-297z M672 539h49q33 0 54.5 4t35.5 10q27 16 41 49q14 31 14 113q0 102 -32 141q-35 37 -111 37h-51v-354zM1174 393v647h534v-139h-334v-102h312v-133h-312v-127h344v-146h-544zM1825 393v647h262l102 -395l101 395h262v-647h-164v494l-125 -494h-149l-125 494v-494h-164z M2654 715q0 156 88 248q88 88 246 88q164 0 250 -86q88 -92 88 -244q0 -115 -39 -186q-37 -72 -111 -113q-72 -41 -180 -41q-106 0 -180 35q-70 35 -117 110q-45 76 -45 189zM2855 715q0 -98 37 -142q37 -43 98 -43q63 0 100 43q35 41 35 150q0 92 -37 133q-37 43 -100 43 q-59 0 -96 -43t-37 -141z" />
<glyph unicode="_" d="M72 37v1364h3608v-1364h-3608zM256 223h3238v994h-3238v-994zM473 393v647h297q86 0 141 -24q51 -23 90 -68q16 -23 29.5 -49.5t22.5 -54.5q16 -61 16 -125q0 -104 -25 -162q-25 -57 -65 -96q-23 -18 -44.5 -31.5t-45.5 -19.5q-33 -10 -62.5 -13.5t-56.5 -3.5h-297z M672 539h49q33 0 54.5 4t35.5 10q27 16 41 49q14 31 14 113q0 102 -32 141q-35 37 -111 37h-51v-354zM1174 393v647h534v-139h-334v-102h312v-133h-312v-127h344v-146h-544zM1825 393v647h262l102 -395l101 395h262v-647h-164v494l-125 -494h-149l-125 494v-494h-164z M2654 715q0 156 88 248q88 88 246 88q164 0 250 -86q88 -92 88 -244q0 -115 -39 -186q-37 -72 -111 -113q-72 -41 -180 -41q-106 0 -180 35q-70 35 -117 110q-45 76 -45 189zM2855 715q0 -98 37 -142q37 -43 98 -43q63 0 100 43q35 41 35 150q0 92 -37 133q-37 43 -100 43 q-59 0 -96 -43t-37 -141z" />
<glyph unicode="a" horiz-adv-x="888" d="M-2 573q2 47 7 94.5t11 67.5q16 66 49 129.5t68 98.5q33 39 61.5 56t81.5 34q47 14 80 15h4q32 0 78 -13q23 -6 39.5 -11.5t31.5 -14.5t32.5 -21.5t42.5 -32.5q31 -27 44 -33t34 -2q29 6 49 -10q8 -8 13 -14.5t2 -32t-13.5 -77.5t-30.5 -153q-31 -141 -42 -259 q-8 -87 -8 -168q0 -30 1 -58q2 -37 6 -74t9 -67.5t10.5 -51t9.5 -24.5q1 -1 3 -1q11 0 33 62q26 72 80 248q29 92 49.5 153.5t34 100.5t20.5 57.5t13 22.5q2 2 13.5 9t21.5 10t17.5 0t2.5 -17q0 -10 -11 -48t-28.5 -94.5t-40 -128t-42.5 -151.5q-23 -80 -43.5 -146.5 t-26.5 -80.5q-29 -57 -76 -69q-11 -3 -22 -3q-35 0 -66 31q-37 37 -56.5 115.5t-23.5 184.5q-1 24 -1 50q1 85 11 182q14 125 43 252q4 16 7.5 31.5t7.5 28.5l4 24q0 2 -23.5 -29.5t-56.5 -78.5q-66 -92 -105.5 -149.5t-65.5 -92.5t-41 -54.5t-32 -37.5q-82 -86 -149 -86 q-27 0 -51 14q-72 44 -72 250q0 30 2 63zM96 467q4 -57 13.5 -104.5t17.5 -57.5q6 -6 33.5 21.5t81 94t133 175t192.5 262.5q8 10 2 21.5t-41 46.5q-23 23 -46 41t-38 24q-44 21 -84 21q-26 0 -51 -8q-63 -22 -114 -99q-25 -37 -45.5 -89t-33.5 -110q-14 -58 -19 -120 q-3 -34 -3 -67q0 -27 2 -52z" />
<glyph unicode="b" horiz-adv-x="948" d="M-8 755q-1 37 -1 75q0 56 2 113q3 95 10 187.5t18.5 166t24.5 121.5t30 59q37 20 51 -2.5t17 -72.5q2 -25 2 -55.5t-2 -66.5q-3 -72 -3 -145q-1 -77 -1 -153v-76q1 -114 4 -215t9.5 -179t12.5 -119l6 -43q39 119 98.5 226.5t118.5 179.5q53 62 113 88q38 17 73 16 q21 0 41 -6q63 -18 93 -75.5t43 -180.5l10 -109l61 39q27 16 57.5 35t49.5 29q33 16 65.5 21t42.5 -5q2 -4 0 -8t-17 -14.5t-47 -30.5t-89 -55q-125 -76 -129 -94q-2 -8 -6.5 -40t-8.5 -69q-4 -39 -12 -85t-14 -75q-23 -86 -61 -153.5t-84 -109.5t-96 -53q-16 -3 -31 -3 q-33 0 -64 16q-37 20 -51 51q-13 27 -13 76v14q0 244 267 404l71 43l-4 133q-4 102 -14 156.5t-35 85.5q-16 20 -39 16q-20 -6 -52 -34.5t-67.5 -69.5t-68.5 -91.5t-58 -99.5q-12 -25 -27.5 -63.5t-29.5 -81.5t-26.5 -85t-20.5 -75q-4 -29 -7 -47.5t-3 -35.5t1 -38.5 t5 -52.5q6 -66 6 -88v-8q-4 -31 -22.5 -26t-30.5 15q-2 2 -4 4.5t-6 6.5q-10 14 -23.5 54t-36.5 120q-29 106 -52.5 226t-35.5 243q-8 76 -10 169zM406 8q-1 -24 -1 -42t1 -30q2 -22 12 -38q12 -25 22.5 -27t38.5 20q49 37 87 125.5t61 219.5q6 41 11 70.5t5 33.5 q0 10 -15.5 2t-52.5 -37q-45 -35 -75.5 -67.5t-51 -67.5t-30.5 -75t-12 -87z" />
<glyph unicode="c" horiz-adv-x="731" d="M-7 476q-1 22 -1 43q0 43 4 83q10 92 25.5 153.5t48.5 127.5q33 72 76.5 124t89.5 76q50 25 104 25q12 0 24 -1q68 -7 113 -50q35 -35 51 -77q9 -22 9 -39q0 -15 -7 -26q-4 -8 -15 -12t-21 -4q-18 0 -25.5 16.5t-15.5 28.5q-16 47 -49 80t-66 33q-29 0 -58.5 -26.5 t-58 -73t-53.5 -108t-39 -130.5q-10 -45 -14 -98.5t-4 -106.5t5 -104.5t15 -92.5q18 -78 45 -134t53 -72q18 -10 34 -10.5t43.5 22t74.5 76t131 149.5q55 63 94 106.5t64.5 71t43 42t29.5 20.5l11 6q12 6 26.5 12t27.5 8t17 -4q2 -10 0 -18q-2 -6 -6 -10q-6 -10 -16 -22.5 t-25 -27.5q-49 -53 -118.5 -137t-149.5 -184q-35 -45 -63.5 -75t-53 -50t-49.5 -30.5t-53 -16.5q-18 -4 -36 -4q-43 1 -85 21q-60 28 -98 89q-23 37 -39.5 89.5t-26.5 114t-13 127.5z" />
<glyph unicode="d" horiz-adv-x="823" d="M-36 264q-2 32 -2 65t2 67q3 68 13 122q23 135 75 242.5t124 165.5q14 10 41 22.5t51 20.5q37 10 70 9q14 0 28 -1q44 -6 91 -33q25 -16 31 -16t6 10q0 12 4 54t10 92.5t13 98.5t14 74q12 66 31.5 134.5t43 129t48 108.5t49.5 75q10 14 26.5 24.5t28.5 14.5q15 4 28 4 q29 0 52 -21q12 -12 15 -27.5t3 -62.5q0 -49 -10 -105t-31.5 -129t-56.5 -163t-84 -207l-82 -192l-2 -275q0 -131 1 -224t7 -169t17.5 -143.5t29.5 -145.5q10 -41 18.5 -70.5t12.5 -29.5t9 36t16 132q14 133 33.5 250.5t52.5 253.5q23 90 39 124.5t38 34.5q20 0 21.5 -9 t-10.5 -42q-10 -25 -23.5 -84t-27 -140t-27 -175t-21.5 -187q-8 -88 -16 -142t-18.5 -85t-24.5 -43t-35 -18q-5 -1 -9 -1q-49 0 -89 117q-18 59 -33.5 122t-28 134.5t-20.5 154.5t-14 181l-13 166l-63 -145q-53 -117 -97.5 -198t-83 -131t-75.5 -71.5t-74 -21.5 q-23 0 -46.5 17.5t-39.5 49.5q-14 27 -23.5 82t-12.5 119zM57 313q0 -66 3 -107.5t14 -82.5q6 -29 12 -51.5t10 -26.5q2 -4 15.5 11.5t32 43t39 62.5t40.5 71q8 14 23.5 46t34 74t40 90.5t44.5 95.5q41 96 73.5 168.5t36.5 83.5q8 16 6 25t-14 26q-10 12 -27.5 28.5 t-33.5 26.5q-40 26 -76.5 25.5t-69.5 -25.5q-94 -76 -147.5 -229.5t-55.5 -354.5zM628 1150q1 -5 9 11q8 14 26.5 60.5t38 100.5t37 107.5t25.5 86.5q10 39 15 73.5t3 57.5l-2 49l-22 -45q-18 -35 -39 -90.5t-38 -120t-30.5 -130t-19.5 -120.5q-4 -35 -3 -40z" />
<glyph unicode="e" horiz-adv-x="735" d="M-33 387q0 25 4 63.5t9 71.5q20 117 66 219.5t110.5 181t142.5 128t162 61.5q25 2 50.5 -4t47 -19.5t37.5 -31t20 -37.5q1 -6 1 -13q0 -47 -62 -110q-18 -20 -55 -47t-81 -55.5t-92 -56t-91 -48.5l-99 -49l-14 -76q-6 -37 -10 -86t-4 -96t3 -89t9 -65q6 -16 18.5 -43.5 t24.5 -48.5q18 -31 31.5 -45t42 2.5t82 68.5t153.5 154q47 49 92 93.5t81 79t60.5 57t30.5 28.5q10 8 23.5 14.5t25.5 10.5q27 12 40.5 14t18.5 -1t4 -8t-3 -9q-4 -8 -40 -47t-89 -90q-29 -27 -58.5 -57.5t-57.5 -60.5t-52.5 -56.5t-38.5 -44.5q-47 -59 -84 -99.5t-67.5 -66 t-60.5 -37.5t-62 -19q-13 -2 -25 -2q-39 0 -77 20q-50 26 -87 76t-58.5 121.5t-21.5 153.5zM170 727l68 37q131 72 208.5 136.5t77.5 100.5q0 12 -5 25.5t-13 20.5q-16 16 -32.5 16t-51.5 -19q-70 -35 -135.5 -112.5t-104.5 -169.5z" />
<glyph unicode="f" horiz-adv-x="546" d="M-24 362q4 115 18 220q23 145 66.5 291.5t100 269.5t118 210.5t120.5 116.5q43 21 77 21q43 0 73 -33q23 -29 28 -60q1 -9 1 -19q0 -27 -9 -62q-10 -43 -30.5 -90t-55 -107.5t-88 -138.5t-129.5 -184q-53 -78 -93 -134.5t-44 -60.5q-4 -6 3 -21.5t19.5 -35t28 -38 t29.5 -30.5q39 -31 71 -44q22 -8 43 -8q12 0 24 2q34 7 73 36t92 80q51 51 78.5 65.5t46.5 -2.5q10 -8 5 -17t-34 -44q-74 -84 -152 -127q-68 -38 -127 -38q-8 0 -16 1q-18 2 -38.5 5t-30.5 5l-23 6l21 -53q27 -66 42 -143.5t21 -156.5q3 -40 3 -78.5t-3 -77.5 q-6 -76 -22 -142q-48 -176 -124 -176q-12 0 -24 4q-29 10 -47 38t-37 87q-29 92 -46 202.5t-25 227.5q-5 80 -5 159q0 37 1 74zM70 233.5q0 -108.5 8 -210t22.5 -191.5t32.5 -154q16 -55 27.5 -52t32.5 67q12 35 19 65.5t11 62.5t6 66.5t2 79.5q0 98 -15 187.5t-48 179.5 q-10 29 -27.5 68.5t-29.5 66.5l-29 63l-6 -88q-6 -102 -6 -210.5zM124 740q7 1 33.5 36t75.5 107q51 74 89 129t66 100t47.5 80t33.5 68q23 49 30 102q3 22 3 39q0 23 -6 37q-10 20 -24.5 18t-45.5 -31q-33 -29 -68.5 -83t-72.5 -127.5t-71 -161.5t-60 -181 q-18 -68 -27.5 -100.5t-2.5 -31.5z" />
<glyph unicode="g" horiz-adv-x="825" d="M-4 514q0 51 2 90t8 71t17.5 62.5t29.5 67.5q33 72 91.5 127t111.5 69q41 12 83 12q39 0 78 -11q81 -21 138 -78q16 -16 28.5 -30.5t16.5 -21.5q23 0 35 -9t18 -21v-2q6 -18 6 -31q2 -18 2.5 -50t0.5 -79q0 -63 2 -108.5t6 -43.5q2 2 27.5 15.5t60.5 29.5q66 33 92.5 39 t44.5 -8q10 -8 -2 -17t-74 -40q-37 -18 -72.5 -41t-50.5 -33l-32 -31l-5 -184q-6 -233 -22 -388t-45 -247q-18 -55 -52 -96t-78 -62.5t-94 -22.5h-3q-48 0 -93 23q-41 20 -70.5 59.5t-43.5 86.5q-6 20 -8 51q-2 19 -2 40v24q2 34 7 69t13 66q29 109 103.5 229.5t195.5 249.5 l70 76l6 84l4 84l-29 -64q-29 -57 -61.5 -111.5t-65.5 -99.5t-63.5 -77.5t-53.5 -45.5q-31 -16 -72 -18h-12q-34 0 -59 10q-35 14 -65.5 54t-49.5 94q-6 20 -10 37.5t-6 37t-3 46t-1 67.5zM116 412q7 -86 36 -148q8 -16 16 -26.5t12 -10.5q8 0 25.5 13.5t39 37t45 53 t46.5 62.5q20 33 50 85t58.5 107.5t52 104.5t33.5 76q6 20 6.5 31.5t-6.5 27.5q-10 29 -44.5 62t-65.5 47q-36 17 -67 17q-14 0 -27 -3q-41 -12 -88 -65q-45 -49 -75 -129t-42 -168q-8 -56 -8 -110q0 -32 3 -64zM242 -295q0 -35 1 -56.5t3 -36.5t6 -26.5t12 -25.5 q23 -45 55 -60q31 -16 54.5 -11t58.5 36q27 25 45.5 62.5t29.5 100t17.5 156t10.5 226.5q2 51 3 95t1 77.5t-1 53.5l-1 19q-4 0 -21.5 -20.5t-41 -50t-48.5 -64.5t-43 -63q-39 -59 -65.5 -110.5t-43 -100.5t-24.5 -97.5t-8 -103.5z" />
<glyph unicode="h" horiz-adv-x="1009" d="M0 615v59q0 33 2 67v-2q2 164 22.5 309.5t54.5 256t78 178t95 80.5q33 8 44 7t38 -14q31 -14 55 -55q46 -71 45 -172q0 -220 -217 -581q-23 -39 -46.5 -75t-33.5 -48q-12 -14 -16 -23.5t-4 -34.5q6 -27 12 -59.5t12 -66t14.5 -65.5t16.5 -57q39 -116 45 -116t16 102 q4 51 12.5 105.5t14.5 83.5q14 53 42 108t62.5 107.5t74.5 95.5t79 72q33 23 52.5 28.5t50.5 9.5h15q64 -1 98 -31q38 -34 50 -118q2 -20 3 -43t-1 -57.5t-6 -87t-12 -129.5q-18 -195 -24 -335q-2 -47 -1 -85q0 -76 7 -115l8 -43l16 33q8 14 26.5 65t39.5 111q14 41 31.5 96 t36 113.5t37 115t32.5 100.5t23.5 71.5t11.5 27.5q8 8 29.5 9t29.5 -3q4 -2 1 -25.5t-10 -57t-17.5 -73.5t-22.5 -75q-6 -25 -15.5 -56.5t-19.5 -64.5t-19.5 -64.5t-17.5 -58.5q-29 -94 -50 -156.5t-41.5 -101.5t-41 -56.5t-43.5 -19.5q-7 -1 -14 -1q-83 0 -125 132 q-9 30 -13 84q-2 38 -3 82q1 20 1 40q2 68 6.5 142t14.5 144q15 96 21 177q6 69 5 123v16q-1 58 -10.5 91t-23.5 33q-16 0 -43 -19.5t-58.5 -51t-62.5 -69.5t-51 -75q-29 -49 -49.5 -103t-32.5 -117.5t-18.5 -140.5t-6.5 -175v-98t-2 -52.5t-6 -21.5t-10 -4q-35 0 -75 52 t-93 173q-39 90 -70.5 197.5t-50.5 205.5q-4 20 -4 50zM106 702l19 29q12 18 34.5 60.5t47 91.5t46 96t32.5 74q29 74 46 143.5t21 129.5q1 20 1 38q0 36 -5 68q-8 46 -31 73q-14 23 -24 23q-14 0 -42 -44t-46 -95q-35 -100 -58.5 -248t-33.5 -334z" />
<glyph unicode="i" horiz-adv-x="401" d="M-4 500q0 53 3 124.5t8 145.5t10.5 139.5t11.5 108.5q2 16 8 38.5t15 37t24.5 11.5t36.5 -38q6 -10 8 -29.5t3 -53.5v-25q0 -26 -1 -60q-2 -51 -6 -123q-15 -234 -15 -382v-10q0 -140 13 -191q10 -45 21 -74t20 -29q4 0 27.5 50t56.5 128q10 23 36.5 80.5t55.5 114.5 q23 43 36 69.5t23 42.5q4 8 7.5 11.5l7.5 7.5q14 16 24 18t17.5 -1t11.5 -10t6 -9q0 -2 -14.5 -34t-36.5 -77q-20 -43 -48 -108.5t-49 -114.5q-31 -72 -49 -115t-33.5 -64.5t-30 -27.5t-34.5 -6h-5q-40 0 -75 33q-37 35 -55 98q-8 25 -15.5 64t-12.5 83t-8 90t-3 87z M47 1206q2 35 12 58q12 29 39 20q12 -4 27 -12q10 -7 16 -17q12 -23 11.5 -51t-15.5 -41q-16 -14 -42.5 -16t-39.5 12q-10 12 -8 47z" />
<glyph unicode="j" horiz-adv-x="366" d="M-315 -251q2 81 14 142q25 111 97.5 234t203.5 264l-2 260v101.5t1 87.5t2 63.5t3 30.5q6 20 23 26q16 4 30.5 -1t20.5 -21q2 -8 7 -43t9 -85t8 -111.5t9 -123.5l6 -94q90 57 157.5 91t96.5 40q23 4 32 3t11 -5q0 -4 -1 -8t-7 -10q-59 -47 -136 -90t-151 -99l2 -122 q1 -29 1 -65.5t-1 -81.5q-2 -89 -6 -179t-10.5 -168t-12.5 -113q-41 -225 -188 -233q-10 -1 -19 -1q-72 0 -115 42q-49 47 -68 118q-17 63 -17 136v15zM-229 -244v-52t1 -38.5t5 -33t10 -33.5q6 -23 20.5 -50.5t33 -45t42 -17.5t49.5 31q31 35 45.5 103.5t22.5 199.5 q2 33 3 73.5t2 83.5t1 84v72l-2 189q-117 -147 -172 -293t-61 -273zM-4 1067q2 35 12 57q12 29 39 21q12 -4 27 -12q10 -7 16 -17q10 -23 10 -51.5t-16 -40.5q-14 -14 -42 -16t-38 12q-10 12 -8 47z" />
<glyph unicode="k" horiz-adv-x="876" d="M-3 664v25q0 61 4 117q5 68 14.5 122.5t13.5 77.5q23 129 46 236.5t57 181t83 108.5q32 23 75 23q23 0 50 -7q14 -8 29.5 -23.5t27.5 -31.5q44 -72 44 -172q0 -151 -101 -367q-8 -20 -27.5 -62t-47 -93t-60.5 -104.5t-68 -96.5q4 -35 8.5 -72t8.5 -68.5t7 -53t5 -27.5 q2 -4 9 15.5t18 53.5q20 80 50.5 160t69.5 154t82 139.5t90 114.5q43 47 70 62.5t63 15.5q72 0 96 -52q10 -21 10 -47q0 -38 -22 -86q-31 -66 -95 -129t-189 -147l-66 -43l27 -29q23 -25 40 -53.5t31.5 -70.5t26.5 -98t27 -136q12 -63 25.5 -127t23.5 -90q16 -49 47 -107.5 t59 -89.5q14 -16 19.5 -18t13.5 8q8 8 16.5 27.5t18.5 61.5t24.5 111.5t34.5 178.5q31 164 50.5 256t33 137t25 55t29.5 10q20 0 27 -11t-5 -28q-4 -6 -16 -60t-27.5 -137t-32 -181.5t-30.5 -190.5q-14 -100 -26.5 -160.5t-27 -92.5t-34 -41t-50.5 -9q-57 2 -110 50 t-113 153q-31 55 -53.5 132t-44.5 206q-18 104 -36.5 178t-33.5 94q-6 8 -20.5 -34t-29.5 -107.5t-28.5 -139t-17.5 -124.5l-4 -70q-12 -12 -26.5 -10t-24.5 10q-12 8 -25 22q-10 6 -20.5 39t-32.5 111q-14 47 -24.5 85t-18.5 74t-14.5 72.5t-12.5 79.5q-14 66 -15 140z M115 707q18 25 43.5 69.5t51.5 95t48.5 97.5t32.5 73q29 74 46 144t21 130q1 20 1 38q0 37 -5 68q-8 46 -28 75q-18 23 -37 12.5t-34 -34t-25.5 -53t-16.5 -44.5q-76 -205 -94 -579zM377 698l49 41q82 68 133 136.5t66 125.5q4 29 0 29t-18.5 -13t-35.5 -32 q-78 -72 -159 -223z" />
<glyph unicode="l" horiz-adv-x="555" d="M-1 674q0 40 -1 78q0 40 1 76q1 74 4 136t7 101q33 287 100.5 457t165.5 217q35 16 73 16q15 -1 31 -3q56 -10 97 -48q10 -10 25.5 -32.5t27.5 -45.5q16 -33 21.5 -57.5t9.5 -71.5q0 -7 1 -14q0 -61 -16 -127q-18 -74 -67 -189q-29 -70 -73 -153.5t-91 -162.5t-91 -143.5 t-72 -95.5l-32 -34v-158q0 -66 6.5 -143.5t17 -157.5t24.5 -157t31 -144q23 -78 42 -131.5t29 -53.5t26.5 52.5t45.5 177.5q25 111 56.5 229.5t62.5 220t56.5 174t39.5 91.5q0 2 1 2t1 2q23 29 36 31.5t21 -3.5q8 -8 13 -26q0 -4 -3 -29t-10 -37q-10 -23 -30.5 -82t-45 -144 t-51 -189.5t-51.5 -213.5q-23 -102 -39 -165.5t-31.5 -97.5t-32 -46t-38.5 -14h-4q-59 0 -100 61q-25 37 -50.5 100.5t-48 147.5t-42 184.5t-34.5 210.5q-6 43 -10 107.5t-6 140.5t-3 156zM120 709l50 77q49 88 95 180.5t84 176.5t65.5 154.5t38.5 113.5q12 51 12 99 q0 26 -4 52q-10 70 -45 113q-10 10 -19.5 18.5t-13.5 8.5q-25 0 -53.5 -31t-55 -85t-50 -129t-40.5 -161q-12 -63 -23 -139t-20.5 -151.5t-14.5 -143t-6 -112.5v-41z" />
<glyph unicode="m" horiz-adv-x="1591" d="M-1 668q1 62 6 112.5t13 79.5q6 25 14.5 47.5t18.5 32.5t23.5 1t27.5 -48q4 -14 6.5 -58t4.5 -137q4 -164 17 -286.5t32 -175.5q2 -6 13 16t26 61q41 109 98 206t121 169q37 41 82 44h7q41 0 73 -32q12 -12 19 -26.5t13.5 -36t10.5 -54t8 -83.5q11 -133 21 -212 q10 -73 15 -73h1q2 2 12 28.5t23 61.5q33 94 83 193.5t106 188.5t113.5 160t106.5 105q36 27 76 27q14 0 26 -3q54 -11 76 -58q16 -31 16 -108v-22q-2 -96 -28 -280q-14 -109 -23.5 -188.5t-15.5 -146.5t-8 -127t-2 -130q0 -130 6 -198q6 -62 14 -62h2q16 10 56.5 110.5 t99.5 282.5q23 68 46.5 135.5t47 128t44 111.5t36.5 88q29 72 48.5 90.5t29.5 9.5q12 -8 19 -43q2 -4 -16.5 -57t-45.5 -129q-14 -37 -30.5 -83t-34 -94t-32 -94t-26.5 -81q-47 -145 -80 -234.5t-58.5 -139.5t-50 -68.5t-53.5 -20.5h-5q-50 0 -78 42q-30 44 -48 144 q-10 58 -10 151q0 75 6 173q14 220 60 528q24 150 28 220q1 22 1 37q0 36 -7 48q-6 10 -18.5 2t-57.5 -53q-53 -53 -104 -125.5t-98.5 -160t-88 -183.5t-71.5 -194q-12 -41 -26.5 -75t-20.5 -42q-14 -12 -38 -13t-48 11q-37 16 -67 122.5t-46 288.5q-6 59 -11 103.5t-7 46.5 t-12.5 -10.5t-26.5 -28.5q-39 -47 -71 -98t-60.5 -117t-56 -150.5t-58.5 -199.5l-29 -2q-39 -4 -56 5t-32 40q-10 20 -22.5 61t-24.5 91.5t-22.5 103.5t-16.5 100q-6 48 -9 110q-2 47 -2 93v31z" />
<glyph unicode="n" horiz-adv-x="1005" d="M-4 709v48q0 70 4 131q6 81 20 120q10 35 22.5 44t23.5 5q12 -4 24 -21q4 -4 6 -58t2 -144q0 -41 1.5 -81t2 -75t2.5 -62.5t5 -40.5q10 -68 20 -113.5t14 -51.5q4 -4 14.5 18.5t20.5 56.5q47 133 113.5 248t138.5 187q47 47 85 66.5t85 23.5q11 1 20 1q28 -1 44 -9 q22 -12 38 -41q15 -31 15 -129q0 -87 -12 -228q-9 -102 -13 -204q-2 -55 -2 -105q0 -44 1 -85q3 -89 12.5 -161t23.5 -110q4 -12 8 -16.5t10.5 6t15.5 37t27 75.5q16 45 48 124t66 158.5t62.5 147.5t41.5 90q16 33 38.5 47t38.5 0q4 -4 -10 -46t-41 -105q-12 -31 -24.5 -66 t-24.5 -68.5t-23.5 -65.5t-19.5 -52q-45 -129 -72.5 -203t-48 -110.5t-40 -46t-48.5 -9.5h-1q-93 0 -136 254q-6 40 -9 110q-2 52 -2 112v41q1 83 6 172t13 169q14 128 15 186v8q0 51 -13 70q-6 12 -30.5 0t-55.5 -38.5t-64.5 -64.5t-58.5 -77t-47 -82t-43.5 -95t-44 -114.5 t-47.5 -142.5q-20 -72 -36.5 -94.5t-43.5 -18.5q-18 0 -31 5q-6 0 -11 6t-12 26.5t-17.5 57t-24.5 96.5q-12 47 -19.5 77.5t-11.5 60.5t-6 62.5t-4 86.5z" />
<glyph unicode="o" horiz-adv-x="702" d="M-37 406q4 78 21.5 152.5t42.5 127.5q10 20 16 44t6 36q0 47 12.5 102.5t28.5 89.5q20 41 63.5 83t84.5 57q39 14 77 14q43 0 85 -18q78 -33 122 -115q49 -98 49 -243.5t-51 -305.5q-10 -29 -15 -50.5t-1 -25.5q2 -4 19.5 11.5t40 40t46 52t37.5 50.5q10 14 18.5 27.5 t16.5 23.5q29 41 46 49t26 2q8 -8 10 -30q0 -10 -19.5 -46t-54.5 -83q-45 -66 -86 -101t-88 -49q-18 -4 -28.5 -8t-17.5 -11.5t-15.5 -20.5t-20.5 -38q-35 -68 -81 -115t-95 -63q-51 -18 -93 -18q-80 0 -133 64q-71 86 -71 261q0 26 2 54zM88 330q0 -90 13.5 -141.5 t45.5 -79.5l27 -25l31 16q14 8 31.5 25.5t36 41t35 50.5t28.5 51l20 43l-43 23q-41 20 -90 64t-82 91l-24.5 35t-12.5 15t-5 -19.5t-5 -50.5t-4 -67.5t-2 -71.5zM149 856q5 -6 39 14q40 23 90 26h13q39 0 55 -15q16 -16 5 -26.5t-42 -8.5q-33 0 -59 -19q-12 -10 -28.5 -28.5 t-31 -39t-24.5 -39t-10 -26.5q0 -12 9 -38.5t22.5 -57.5t29.5 -60.5t33 -50.5q16 -23 41.5 -48t44.5 -40l45 -30l27 90q29 89 39 163q7 53 7 115q0 25 -1 51q-4 90 -22.5 145.5t-59.5 96.5q-29 29 -45.5 34t-44.5 -5q-41 -16 -73 -55t-48 -91q-16 -51 -11 -57z" />
<glyph unicode="p" horiz-adv-x="874" d="M-18 100.5q0 59.5 1 127t4 141t7 141.5t8 126t8 97q6 43 12.5 85t14.5 80t15 66.5t14 45.5q8 20 22 37.5t29.5 22.5t31 -4t27.5 -40q4 -12 4 -45t-6 -111q-2 -31 -4 -68.5t-4 -76.5t-4 -77t-2 -66l-4 -142l39 86q70 154 134 248t122 123q44 21 82 21q58 0 104 -50 q20 -23 32.5 -45t18.5 -58t8 -88t2 -134v-108t2 -55.5t6.5 -20.5t10.5 -3q20 0 39.5 26t66.5 110q10 16 18.5 31.5t16.5 29.5q18 37 32.5 50t26 11t18.5 -11t11 -17l4 -17q0 -10 -11 -40.5t-26.5 -66.5t-31 -68t-25.5 -44q-41 -55 -129 -55h-45l-16 -68q-16 -66 -48 -132 t-67 -103t-88 -54q-34 -12 -63 -12q-16 0 -31 4q-41 10 -68 44t-37 80q-6 29 -6 61q0 19 2 39q6 55 33 106q70 137 201 141h49l6 41q4 16 6 68.5t2 105.5q0 78 -3 116t-13 69q-6 20 -12.5 34.5t-10.5 14.5q-2 0 -18.5 -14.5t-36.5 -36.5q-137 -139 -240 -426 q-29 -80 -44 -130t-23.5 -102.5t-11.5 -122t-5 -188.5q-2 -96 -3 -152.5t-4 -86t-6 -40t-9 -12.5q-16 -9 -30 -9q-22 0 -37 23q-25 37 -38.5 108t-18.5 162t-9 179q-2 39 -2 98.5zM360 127q0 -18 5.5 -42t12.5 -43t15.5 -32.5t14.5 -11.5q18 6 43.5 55t46 108.5t31 111 t-2.5 59.5q-25 14 -53.5 2t-54 -43t-42 -75t-16.5 -89z" />
<glyph unicode="q" horiz-adv-x="942" d="M-10 434q0 45 1 77t3 54.5t6 42t10 43.5q35 131 99.5 220.5t136.5 111.5q23 7 49 7q37 0 80 -15q27 -8 57.5 -24.5t59 -35t52 -37t34.5 -32.5q10 -12 18 -23.5t10 -15.5q4 -4 13.5 14.5t21.5 46.5q14 35 25 52q10 23 22 27.5t23.5 1.5t19.5 -11l10 -10q10 -4 5 -49 t-27 -156q-12 -63 -24.5 -133t-22.5 -129.5t-16.5 -103.5t-6.5 -56q0 -10 5 -10t34 12q57 29 111.5 89.5t132.5 174.5q25 35 34 41t33 6q14 -2 25.5 -5t11.5 -7q2 -4 -12 -28.5t-36.5 -58.5t-49.5 -69.5t-49 -60.5q-43 -47 -87 -82t-83 -49l-43 -16l33 -70q37 -78 54 -153.5 t21 -174.5q1 -29 1 -56q0 -56 -5 -108q-8 -77 -25.5 -136.5t-43 -96.5t-56.5 -43q-6 -1 -11 -1q-38 0 -64 37q-29 42 -52 144q-10 43 -13 127q-2 63 -2 136v49q1 102 6 207.5t16 187.5q8 66 15 119t9 63t-11 -13.5t-36 -64.5t-45.5 -84t-36.5 -61q-51 -76 -105.5 -121 t-104.5 -59q-20 -5 -40 -5q-28 0 -55 11q-45 20 -76 73q-18 31 -30.5 57.5t-18.5 57.5t-8 72t-2 102zM84 398q2 -64 12 -113q12 -59 30.5 -104.5t35.5 -55.5q12 -8 35.5 6t52.5 45t62.5 75t66.5 99q10 16 29.5 52t43 80t48 91.5t44 86t32 65.5t12.5 29q0 10 -23 14 q-8 4 -21.5 14.5t-23.5 26.5q-16 23 -57 55.5t-84 57.5q-10 4 -23.5 8t-25.5 8q-7 2 -14 2q-38 0 -82 -43q-54 -51 -91 -139q-20 -47 -33.5 -107.5t-20.5 -124.5q-5 -51 -5 -100v-28zM607 -182v-37q0 -35 1 -66q4 -102 13.5 -172.5t21.5 -70.5q6 0 20.5 46t24.5 107 q8 37 11 86t3 101.5t-4 102.5t-12 87q-8 33 -17.5 67.5t-15.5 51.5l-18 37l-4 -35q-6 -37 -11.5 -88t-8.5 -106.5t-4 -110.5z" />
<glyph unicode="r" horiz-adv-x="665" d="M-45 737q0 66 20.5 120t55.5 89q36 30 69 30q27 0 52 -20q28 -24 28 -76q0 -14 -2 -30q-10 -74 -59 -164q-20 -35 -21.5 -40t15.5 -1q8 4 34.5 19.5t57.5 33.5q100 63 146 81q22 9 41 9t34 -10q20 -16 14 -35q-2 -8 -27.5 -62t-60.5 -124t-58.5 -123t-38.5 -101 t-24.5 -92t-15.5 -96q-4 -29 -5 -47t-1 -33.5t3 -31t7 -35.5q6 -25 16.5 -36t14.5 -15q2 -4 32.5 38t73.5 108.5t94.5 146t96.5 151.5t77.5 123t41.5 64q16 27 29.5 33.5t23.5 4.5q23 0 24.5 -14t-6.5 -34.5t-19 -40t-18 -27.5q-14 -25 -44.5 -79t-70.5 -123t-85 -141.5 t-87 -134t-78 -101.5t-54 -44q-12 -2 -23 -2q-31 1 -55 17q-33 22 -58 81q-12 25 -16 50.5t-4 80.5q0 129 43 256t137 285q18 31 30.5 53.5t12.5 24.5q0 4 -22.5 -10.5t-55.5 -36.5q-35 -23 -58.5 -37t-42.5 -23.5t-37.5 -15.5t-39.5 -8q-25 -4 -40 -1t-36 13q-35 18 -48 45 t-13 88zM21 695.5q1 -19.5 8 -23.5q6 -4 19 22.5t27.5 63.5t25 75.5t10.5 59.5q0 27 -9 35q-10 4 -28.5 -22.5t-34.5 -67.5q-6 -18 -11 -45t-6.5 -52.5t-0.5 -45z" />
<glyph unicode="s" horiz-adv-x="702" d="M4 573q-5 16 -5 34q0 47 34 104q43 77 127 100q25 6 48 6q25 0 46 -7q41 -13 41 -42q0 -12 -7 -14t-36 2t-41 1t-35 -22q-35 -23 -55.5 -63.5t-20.5 -81.5q0 -51 36 -73.5t143 -39.5q25 -4 39 -6t23 0t18.5 6t23.5 15q18 12 52 28.5t71 32.5t72.5 31.5t60.5 21.5 q48 13 81 13q30 0 48 -11q14 -10 9 -21.5t-21 -11.5t-56.5 -14t-87.5 -33.5t-92 -42t-67 -36.5q-14 -10 -15.5 -12.5t8.5 -2.5t25.5 -12t32 -29.5t29 -36t16.5 -32.5q9 -34 9 -87v-11q-1 -60 -11 -107q-33 -137 -113 -221t-180 -84q-57 0 -98 29.5t-60 86.5q-12 35 -12 79 q0 9 1 19q3 56 21.5 114.5t49 115.5t71.5 102l52 56l-25 4q-123 27 -178.5 61.5t-71.5 91.5zM190 31q-1 -15 -1 -29q0 -90 34 -119q12 -10 19.5 -10t31.5 12q59 31 104.5 104.5t61.5 172.5q8 46 8 85q0 57 -18 99q-4 12 -13 25.5t-18 17.5q-12 8 -21 2t-38 -35 q-66 -68 -104.5 -151.5t-45.5 -173.5z" />
<glyph unicode="t" horiz-adv-x="548" d="M-170 1194q0 23 176 66l98 22l31 74q55 135 132 228t163 122q33 13 64 13q22 -1 42 -7q50 -16 68 -59q11 -29 11 -77v-8q-1 -54 -17 -118q-6 -29 -12 -54.5t-8 -29.5q-4 -10 12 -12q5 -1 16 -1q21 0 64 3q59 0 83.5 -1.5t34.5 -11.5q8 -4 12.5 -9t0.5 -7q-2 -2 -25.5 -4 t-54.5 -6q-31 -2 -67 -4t-56 -6l-49 -4l-37 -78q-25 -49 -54.5 -115t-73.5 -144.5t-104.5 -167.5t-144.5 -186v-86q0 -113 1 -192.5t5 -141t11.5 -110.5t19.5 -98q6 -25 15.5 -52.5t19.5 -52t21.5 -43t17.5 -22.5q12 -8 38.5 26.5t53.5 89.5q6 12 15 38t20.5 58.5t24 69.5 t22.5 74q25 76 47 148.5t42.5 129t34 93.5t19.5 41l4 4v2q20 18 37 24q14 4 24.5 -3t6.5 -42q-2 -20 -21.5 -89.5t-60.5 -205.5q-37 -121 -64.5 -203.5t-50 -138t-44 -88t-42.5 -51.5q-44 -39 -89 -39q-22 0 -45 10q-68 30 -124 142q-25 51 -44 115.5t-31.5 148.5t-17.5 192 q-3 60 -3 129q0 56 2 117q2 82 6 150.5t10.5 128t16.5 115t22 112.5q10 41 16.5 69.5t2.5 30.5q-2 2 -28 -3t-60 -15q-82 -23 -119 -23t-37 23zM152 758l286 522q0 8 -32.5 3t-70.5 -14t-70 -17.5t-29 -6.5q-4 -4 -12.5 -41t-18.5 -90t-20.5 -114.5t-18.5 -113.5t-12 -89 t-2 -39zM254 1311l51 6q20 4 52 8t55 8l57 10l27 76q20 59 28 117q4 29 4 53.5t-4 44.5q-6 29 -18 30t-47 -24q-53 -41 -106.5 -119.5t-86.5 -170.5z" />
<glyph unicode="u" horiz-adv-x="995" d="M-39 305q-1 18 -1 36.5t1 38.5q2 40 8 79q6 49 18.5 104t27 110.5t30.5 106.5t33 92q16 66 45 106t51.5 43t29.5 -36q2 -9 2 -20q0 -40 -20 -111q-29 -94 -52 -186.5t-38 -169.5q-6 -33 -10 -76t-5 -84v-26q0 -26 1 -48q2 -33 6 -45q6 -16 14.5 -12t47.5 39 q31 29 84 96.5t114.5 154.5t124 182t111.5 181q8 10 14 20.5t12 20.5q27 49 47.5 63.5t35 11.5t23.5 -18.5t13 -25.5q10 -10 5 -61.5t-23 -174.5q-27 -180 -32 -303q-1 -32 -1 -63q0 -85 10 -152q25 -153 41 -153q4 0 19.5 36.5t37.5 90.5q10 25 25.5 60.5t34 75.5t38 80 t38.5 74q29 59 47 92.5t28 49.5q6 8 18.5 17t26 12t22.5 -3t9 -26q0 -4 -20.5 -57.5t-48.5 -120.5q-14 -35 -31 -74t-32 -78t-29.5 -73t-24.5 -58q-20 -53 -36.5 -89t-30 -58.5t-27 -34t-27.5 -15.5q-20 -7 -38 -7q-44 -1 -79 39q-49 56 -76 185q-10 49 -15 100.5t-5 109 t5 125t15 151.5l7 45l-60 -99q-92 -154 -161.5 -248t-125.5 -143q-66 -55 -132 -55h-9q-72 4 -110 70q-8 14 -13.5 42.5t-7.5 63.5z" />
<glyph unicode="v" horiz-adv-x="970" d="M-8 746v24q0 54 8 70t34.5 17t39.5 -13q6 -10 18 -81t31 -214q18 -139 31.5 -227.5t26 -145.5t24.5 -91t31 -65q14 -23 21 -27.5t17 1.5q23 12 50.5 50t56.5 93.5t56.5 126t49.5 146.5l27 86l-18 59q-23 70 -34 147.5t-11 153.5q0 78 10 113t39 57q20 16 45.5 17t49 -9 t42 -31.5t27.5 -52.5q6 -20 7 -56v-19q0 -29 -2 -63q-3 -46 -10.5 -99.5t-17.5 -106.5l-23 -119l17 -32q8 -14 21.5 -31.5t23.5 -28.5l27 -24l38 22q18 10 57.5 46t80.5 77q66 68 95 87t52 11q16 -6 9 -25.5t-46 -66.5q-117 -143 -212 -184q-37 -16 -70 -16q-52 0 -95 40 q-10 10 -17 15.5t-9 3.5t-10.5 -24.5t-18.5 -53.5t-25.5 -69.5t-33 -75.5t-35.5 -70t-33 -53q-52 -73 -106 -99q-30 -14 -59 -15q-23 -1 -45 9q-50 20 -92 85t-69 171q-18 78 -34.5 183.5t-25.5 204t-11 172.5zM539 770q2 -55 12 -106q0 -6 12 -15q10 -4 14.5 9.5t8.5 70.5 q1 15 1 39v26q-1 42 -4 83t-8.5 70.5t-11.5 29.5t-13 -29.5t-10 -75.5q-2 -28 -2 -59q0 -21 1 -43z" />
<glyph unicode="w" horiz-adv-x="1296" d="M-10 434q0 78 7 156t19.5 142.5t27.5 108.5t32 54q16 14 28.5 14t22.5 -6q10 -8 20 -20q3 -2 3 -18q0 -35 -15 -140q-17 -103 -23 -203q-4 -65 -4 -124q0 -32 2 -62q4 -86 15.5 -151.5t34.5 -100.5l18 -31l39 43q16 18 40 57.5t49.5 90.5t50 106.5t42.5 108.5 q25 63 51.5 101t49 40t36.5 -37q13 -34 13 -106v-21q-1 -39 -1 -70.5t1 -54.5q2 -47 10 -94q6 -33 16.5 -67.5t23.5 -66.5t27.5 -56.5t26.5 -38.5l21 -23l35 39q14 16 31.5 46t36 66t35.5 76.5t30 79.5l22 68l-35 76q-27 53 -47 123.5t-34.5 143.5t-18.5 139q-1 22 -1 42 q0 39 5 68q8 47 28.5 79.5t45.5 43.5q23 10 50 10q7 0 13 -1q34 -3 58 -20q29 -20 58.5 -64t41.5 -87q10 -35 12 -90q1 -16 1 -32q0 -42 -4 -91q-5 -68 -17 -141.5t-31 -145.5q-6 -27 -9 -42t0 -26.5t11 -18.5t25 -19q16 -12 24.5 -14.5t24.5 8.5q29 16 55.5 47.5 t67.5 103.5q71 127 108 162q10 10 26.5 16t31 5t20.5 -11t-4 -31q-6 -12 -29.5 -52t-53.5 -85t-57.5 -87t-39.5 -56q-40 -49 -100 -65q-22 -6 -43 -6q-36 0 -70 18q-25 14 -29 10q0 -2 -9 -22.5t-19 -49.5q-27 -66 -63 -127t-71 -94q-49 -48 -102 -48q-26 0 -52 11 q-82 33 -138 150q-10 20 -19.5 47.5t-17.5 54.5t-12.5 51.5t-4.5 40.5t-8 4t-35 -65q-76 -156 -131 -185q-39 -20 -77 -20q-28 0 -56 11q-65 26 -98 100q-20 47 -32.5 136t-12.5 189zM818 864q3 -104 38 -248q14 -59 22.5 -90.5t13.5 -40t9 2.5t10 40q17 80 25 154 q5 53 6 100q0 18 -1 36q-3 62 -17.5 109.5t-36.5 73.5q-14 16 -21.5 17.5t-21.5 -14.5q-26 -32 -26 -121v-19z" />
<glyph unicode="x" horiz-adv-x="724" d="M-80 756q-4 16 3 22t18.5 7t23.5 -2t19 -5q2 0 2 -1t2 -1h2q2 0 6 -3t13 -11t23.5 -24.5t37.5 -45.5q47 -59 79.5 -89t34.5 -32l6 11q5 12 12 30.5t15 41t16 42.5q25 63 45.5 106.5t34.5 63.5q16 23 28.5 31t22 8t15.5 -6l10 -10q0 -4 1 -6l3 -6q1 -3 1 -8q0 -17 -12 -59 q-15 -54 -44 -134q-18 -51 -31.5 -85t-20.5 -55.5t-9.5 -34t2.5 -20.5q6 -14 27.5 -49t47 -75t51 -76.5t41.5 -57.5q33 -43 64 -68.5t41 -15.5t25.5 59.5t31.5 131.5q6 31 19.5 72.5t30 82.5t36 76t39.5 53q10 10 32 8t28 -8q4 -8 -6.5 -31.5t-27 -63.5t-35.5 -95t-34 -127 q-8 -41 -18 -79t-21 -54q-12 -31 -41.5 -54.5t-60.5 -27.5q-9 -2 -19 -2q-46 0 -100 39q-66 47 -133 143q-12 18 -27.5 37.5t-28 36t-20.5 28t-10 11.5t-5 -29t-13 -53q-16 -57 -32 -106.5t-32 -75.5q-2 -2 -4 -7q-2 -4 -10 -12q-16 -16 -41 -15t-35 32q0 74 30.5 167 t59.5 183l-113 139q-4 6 -21.5 27.5t-34.5 47t-30.5 49t-9.5 34.5z" />
<glyph unicode="y" horiz-adv-x="909" d="M-29 373q0 123 27 234.5t86 234.5q41 82 65.5 119.5t47.5 48.5q18 6 32.5 7t18.5 -5q4 -4 -8.5 -32t-28.5 -65q-39 -80 -68.5 -162.5t-48.5 -158.5q-8 -37 -14 -88t-7 -102v-32q0 -32 1 -61q2 -43 8 -63l12 -39l56 59q45 45 103 126t114.5 172t104.5 180.5t71 152.5 q14 39 26 55q4 8 11 17q10 14 30 14q14 -2 25 -12l8 -12q5 -3 5 -55q0 -26 -1 -64q-2 -32 -2 -64q0 -48 4 -97q6 -81 23 -173l10 -53l106 71q84 55 125 74q31 15 53 15q7 0 13 -1q23 -6 14.5 -19t-51.5 -38q-23 -12 -63.5 -40t-80.5 -56.5t-71 -51t-31 -24.5t4.5 -19.5 t10.5 -43.5q18 -78 30.5 -177.5t19.5 -196.5q6 -86 6 -158v-20q-1 -81 -11 -124q-39 -166 -164 -224q-31 -16 -50.5 -20t-60.5 0q-117 10 -186 88q-55 59 -77 141q-15 58 -15 121q0 26 3 54q9 92 48 187t108 181q35 43 82.5 90t96.5 86q18 14 29.5 27.5t7.5 17.5 q-2 4 -6.5 31t-9.5 63.5t-11 77.5t-8 74l-6 51l-62 -110q-84 -154 -168 -263.5t-147 -146.5q-25 -14 -40.5 -18t-43.5 0q-59 6 -82 54t-23 165zM299 -233q0 -29 4 -64t8 -53q14 -53 41 -95t58.5 -67t65.5 -30q8 -2 16 -2q25 0 49 14q43 27 68.5 73.5t35.5 121.5q8 58 8 133 q0 22 -1 46q-3 105 -21 246q-6 47 -13.5 95t-11.5 73l-10 55l-66 -59q-113 -106 -172 -231t-59 -256z" />
<glyph unicode="z" horiz-adv-x="1226" d="M14 585.5q-4 10.5 0 24.5q25 76 40.5 126t54.5 71q12 8 70.5 26.5t127.5 36.5q68 20 128.5 39t76.5 23q33 10 61.5 8t38.5 -14q2 -4 4 -5t2 3t3.5 2t6.5 -6.5t6 -11.5t3 -11t-18.5 -32.5t-45.5 -65.5q-27 -35 -54 -79t-44 -71q-14 -25 -33.5 -62.5t-37 -75.5t-30 -68.5 t-12.5 -36.5q0 -4 10.5 3t26.5 19q63 59 129 90t125 31q72 0 127.5 -32t77.5 -85q10 -16 16.5 -29.5t10.5 -13.5t34.5 18.5t71.5 44t83 53t69 48.5q20 16 41.5 28.5t44.5 26.5q20 10 33.5 8t21.5 -8q8 -8 14 -18q2 -12 -79 -74q-29 -20 -79 -54t-101.5 -65.5t-90.5 -54.5 t-45 -23q-4 0 -7 -34.5t-5 -81.5q-4 -111 -30.5 -234t-65.5 -233.5t-88.5 -199.5t-100.5 -134q-43 -39 -78.5 -53.5t-91.5 -18.5q-15 -1 -29 -1q-39 1 -63 9q-33 12 -72 44q-72 66 -84 171q-2 19 -2 40q0 90 43 196q113 285 455 490q43 25 64.5 38t28.5 25t3 27.5t-12 44.5 q-10 29 -35.5 51t-54.5 22q-33 0 -89.5 -29.5t-114.5 -73.5t-107.5 -93t-69.5 -88l-7 -10.5t-7 -8.5q2 0 -23 -12q-10 -6 -23.5 -9t-22.5 1t-13 20.5t6 51.5q0 2 4 22q4 10 5 20.5t5 22.5q35 137 90.5 262t122.5 217q18 25 30.5 43.5t12.5 20.5t-45 -10.5t-106 -30.5 q-74 -20 -119 -36.5t-71.5 -38t-41 -53.5t-24.5 -83q-10 -14 -21.5 -18.5t-21 -1.5t-13.5 13.5zM283 -394.5q0 -19.5 2 -47.5q0 -29 2 -47.5t5 -30.5t7 -22.5t12 -22.5q33 -51 82 -51q37 0 84 30q59 41 115.5 139.5t105.5 251.5q72 215 84 375q4 31 3 49.5t-5 18.5 q-10 0 -41.5 -19.5t-71.5 -50.5t-82 -66.5t-73 -66.5q-41 -41 -71.5 -79t-55.5 -75.5t-43 -77.5t-33 -87q-10 -29 -15 -47.5t-8 -36t-3 -37z" />
<glyph unicode="{" d="M72 37v1364h3608v-1364h-3608zM256 223h3238v994h-3238v-994zM473 393v647h297q86 0 141 -24q51 -23 90 -68q16 -23 29.5 -49.5t22.5 -54.5q16 -61 16 -125q0 -104 -25 -162q-25 -57 -65 -96q-23 -18 -44.5 -31.5t-45.5 -19.5q-33 -10 -62.5 -13.5t-56.5 -3.5h-297z M672 539h49q33 0 54.5 4t35.5 10q27 16 41 49q14 31 14 113q0 102 -32 141q-35 37 -111 37h-51v-354zM1174 393v647h534v-139h-334v-102h312v-133h-312v-127h344v-146h-544zM1825 393v647h262l102 -395l101 395h262v-647h-164v494l-125 -494h-149l-125 494v-494h-164z M2654 715q0 156 88 248q88 88 246 88q164 0 250 -86q88 -92 88 -244q0 -115 -39 -186q-37 -72 -111 -113q-72 -41 -180 -41q-106 0 -180 35q-70 35 -117 110q-45 76 -45 189zM2855 715q0 -98 37 -142q37 -43 98 -43q63 0 100 43q35 41 35 150q0 92 -37 133q-37 43 -100 43 q-59 0 -96 -43t-37 -141z" />
<glyph unicode="|" d="M72 37v1364h3608v-1364h-3608zM256 223h3238v994h-3238v-994zM473 393v647h297q86 0 141 -24q51 -23 90 -68q16 -23 29.5 -49.5t22.5 -54.5q16 -61 16 -125q0 -104 -25 -162q-25 -57 -65 -96q-23 -18 -44.5 -31.5t-45.5 -19.5q-33 -10 -62.5 -13.5t-56.5 -3.5h-297z M672 539h49q33 0 54.5 4t35.5 10q27 16 41 49q14 31 14 113q0 102 -32 141q-35 37 -111 37h-51v-354zM1174 393v647h534v-139h-334v-102h312v-133h-312v-127h344v-146h-544zM1825 393v647h262l102 -395l101 395h262v-647h-164v494l-125 -494h-149l-125 494v-494h-164z M2654 715q0 156 88 248q88 88 246 88q164 0 250 -86q88 -92 88 -244q0 -115 -39 -186q-37 -72 -111 -113q-72 -41 -180 -41q-106 0 -180 35q-70 35 -117 110q-45 76 -45 189zM2855 715q0 -98 37 -142q37 -43 98 -43q63 0 100 43q35 41 35 150q0 92 -37 133q-37 43 -100 43 q-59 0 -96 -43t-37 -141z" />
<glyph unicode="}" d="M72 37v1364h3608v-1364h-3608zM256 223h3238v994h-3238v-994zM473 393v647h297q86 0 141 -24q51 -23 90 -68q16 -23 29.5 -49.5t22.5 -54.5q16 -61 16 -125q0 -104 -25 -162q-25 -57 -65 -96q-23 -18 -44.5 -31.5t-45.5 -19.5q-33 -10 -62.5 -13.5t-56.5 -3.5h-297z M672 539h49q33 0 54.5 4t35.5 10q27 16 41 49q14 31 14 113q0 102 -32 141q-35 37 -111 37h-51v-354zM1174 393v647h534v-139h-334v-102h312v-133h-312v-127h344v-146h-544zM1825 393v647h262l102 -395l101 395h262v-647h-164v494l-125 -494h-149l-125 494v-494h-164z M2654 715q0 156 88 248q88 88 246 88q164 0 250 -86q88 -92 88 -244q0 -115 -39 -186q-37 -72 -111 -113q-72 -41 -180 -41q-106 0 -180 35q-70 35 -117 110q-45 76 -45 189zM2855 715q0 -98 37 -142q37 -43 98 -43q63 0 100 43q35 41 35 150q0 92 -37 133q-37 43 -100 43 q-59 0 -96 -43t-37 -141z" />
<glyph unicode="~" d="M72 37v1364h3608v-1364h-3608zM256 223h3238v994h-3238v-994zM473 393v647h297q86 0 141 -24q51 -23 90 -68q16 -23 29.5 -49.5t22.5 -54.5q16 -61 16 -125q0 -104 -25 -162q-25 -57 -65 -96q-23 -18 -44.5 -31.5t-45.5 -19.5q-33 -10 -62.5 -13.5t-56.5 -3.5h-297z M672 539h49q33 0 54.5 4t35.5 10q27 16 41 49q14 31 14 113q0 102 -32 141q-35 37 -111 37h-51v-354zM1174 393v647h534v-139h-334v-102h312v-133h-312v-127h344v-146h-544zM1825 393v647h262l102 -395l101 395h262v-647h-164v494l-125 -494h-149l-125 494v-494h-164z M2654 715q0 156 88 248q88 88 246 88q164 0 250 -86q88 -92 88 -244q0 -115 -39 -186q-37 -72 -111 -113q-72 -41 -180 -41q-106 0 -180 35q-70 35 -117 110q-45 76 -45 189zM2855 715q0 -98 37 -142q37 -43 98 -43q63 0 100 43q35 41 35 150q0 92 -37 133q-37 43 -100 43 q-59 0 -96 -43t-37 -141z" />
<glyph unicode="&#xa1;" d="M72 37v1364h3608v-1364h-3608zM256 223h3238v994h-3238v-994zM473 393v647h297q86 0 141 -24q51 -23 90 -68q16 -23 29.5 -49.5t22.5 -54.5q16 -61 16 -125q0 -104 -25 -162q-25 -57 -65 -96q-23 -18 -44.5 -31.5t-45.5 -19.5q-33 -10 -62.5 -13.5t-56.5 -3.5h-297z M672 539h49q33 0 54.5 4t35.5 10q27 16 41 49q14 31 14 113q0 102 -32 141q-35 37 -111 37h-51v-354zM1174 393v647h534v-139h-334v-102h312v-133h-312v-127h344v-146h-544zM1825 393v647h262l102 -395l101 395h262v-647h-164v494l-125 -494h-149l-125 494v-494h-164z M2654 715q0 156 88 248q88 88 246 88q164 0 250 -86q88 -92 88 -244q0 -115 -39 -186q-37 -72 -111 -113q-72 -41 -180 -41q-106 0 -180 35q-70 35 -117 110q-45 76 -45 189zM2855 715q0 -98 37 -142q37 -43 98 -43q63 0 100 43q35 41 35 150q0 92 -37 133q-37 43 -100 43 q-59 0 -96 -43t-37 -141z" />
<glyph unicode="&#xa6;" d="M72 37v1364h3608v-1364h-3608zM256 223h3238v994h-3238v-994zM473 393v647h297q86 0 141 -24q51 -23 90 -68q16 -23 29.5 -49.5t22.5 -54.5q16 -61 16 -125q0 -104 -25 -162q-25 -57 -65 -96q-23 -18 -44.5 -31.5t-45.5 -19.5q-33 -10 -62.5 -13.5t-56.5 -3.5h-297z M672 539h49q33 0 54.5 4t35.5 10q27 16 41 49q14 31 14 113q0 102 -32 141q-35 37 -111 37h-51v-354zM1174 393v647h534v-139h-334v-102h312v-133h-312v-127h344v-146h-544zM1825 393v647h262l102 -395l101 395h262v-647h-164v494l-125 -494h-149l-125 494v-494h-164z M2654 715q0 156 88 248q88 88 246 88q164 0 250 -86q88 -92 88 -244q0 -115 -39 -186q-37 -72 -111 -113q-72 -41 -180 -41q-106 0 -180 35q-70 35 -117 110q-45 76 -45 189zM2855 715q0 -98 37 -142q37 -43 98 -43q63 0 100 43q35 41 35 150q0 92 -37 133q-37 43 -100 43 q-59 0 -96 -43t-37 -141z" />
<glyph unicode="&#xa7;" d="M72 37v1364h3608v-1364h-3608zM256 223h3238v994h-3238v-994zM473 393v647h297q86 0 141 -24q51 -23 90 -68q16 -23 29.5 -49.5t22.5 -54.5q16 -61 16 -125q0 -104 -25 -162q-25 -57 -65 -96q-23 -18 -44.5 -31.5t-45.5 -19.5q-33 -10 -62.5 -13.5t-56.5 -3.5h-297z M672 539h49q33 0 54.5 4t35.5 10q27 16 41 49q14 31 14 113q0 102 -32 141q-35 37 -111 37h-51v-354zM1174 393v647h534v-139h-334v-102h312v-133h-312v-127h344v-146h-544zM1825 393v647h262l102 -395l101 395h262v-647h-164v494l-125 -494h-149l-125 494v-494h-164z M2654 715q0 156 88 248q88 88 246 88q164 0 250 -86q88 -92 88 -244q0 -115 -39 -186q-37 -72 -111 -113q-72 -41 -180 -41q-106 0 -180 35q-70 35 -117 110q-45 76 -45 189zM2855 715q0 -98 37 -142q37 -43 98 -43q63 0 100 43q35 41 35 150q0 92 -37 133q-37 43 -100 43 q-59 0 -96 -43t-37 -141z" />
<glyph unicode="&#xa9;" d="M72 37v1364h3608v-1364h-3608zM256 223h3238v994h-3238v-994zM473 393v647h297q86 0 141 -24q51 -23 90 -68q16 -23 29.5 -49.5t22.5 -54.5q16 -61 16 -125q0 -104 -25 -162q-25 -57 -65 -96q-23 -18 -44.5 -31.5t-45.5 -19.5q-33 -10 -62.5 -13.5t-56.5 -3.5h-297z M672 539h49q33 0 54.5 4t35.5 10q27 16 41 49q14 31 14 113q0 102 -32 141q-35 37 -111 37h-51v-354zM1174 393v647h534v-139h-334v-102h312v-133h-312v-127h344v-146h-544zM1825 393v647h262l102 -395l101 395h262v-647h-164v494l-125 -494h-149l-125 494v-494h-164z M2654 715q0 156 88 248q88 88 246 88q164 0 250 -86q88 -92 88 -244q0 -115 -39 -186q-37 -72 -111 -113q-72 -41 -180 -41q-106 0 -180 35q-70 35 -117 110q-45 76 -45 189zM2855 715q0 -98 37 -142q37 -43 98 -43q63 0 100 43q35 41 35 150q0 92 -37 133q-37 43 -100 43 q-59 0 -96 -43t-37 -141z" />
<glyph unicode="&#xaa;" d="M72 37v1364h3608v-1364h-3608zM256 223h3238v994h-3238v-994zM473 393v647h297q86 0 141 -24q51 -23 90 -68q16 -23 29.5 -49.5t22.5 -54.5q16 -61 16 -125q0 -104 -25 -162q-25 -57 -65 -96q-23 -18 -44.5 -31.5t-45.5 -19.5q-33 -10 -62.5 -13.5t-56.5 -3.5h-297z M672 539h49q33 0 54.5 4t35.5 10q27 16 41 49q14 31 14 113q0 102 -32 141q-35 37 -111 37h-51v-354zM1174 393v647h534v-139h-334v-102h312v-133h-312v-127h344v-146h-544zM1825 393v647h262l102 -395l101 395h262v-647h-164v494l-125 -494h-149l-125 494v-494h-164z M2654 715q0 156 88 248q88 88 246 88q164 0 250 -86q88 -92 88 -244q0 -115 -39 -186q-37 -72 -111 -113q-72 -41 -180 -41q-106 0 -180 35q-70 35 -117 110q-45 76 -45 189zM2855 715q0 -98 37 -142q37 -43 98 -43q63 0 100 43q35 41 35 150q0 92 -37 133q-37 43 -100 43 q-59 0 -96 -43t-37 -141z" />
<glyph unicode="&#xab;" d="M72 37v1364h3608v-1364h-3608zM256 223h3238v994h-3238v-994zM473 393v647h297q86 0 141 -24q51 -23 90 -68q16 -23 29.5 -49.5t22.5 -54.5q16 -61 16 -125q0 -104 -25 -162q-25 -57 -65 -96q-23 -18 -44.5 -31.5t-45.5 -19.5q-33 -10 -62.5 -13.5t-56.5 -3.5h-297z M672 539h49q33 0 54.5 4t35.5 10q27 16 41 49q14 31 14 113q0 102 -32 141q-35 37 -111 37h-51v-354zM1174 393v647h534v-139h-334v-102h312v-133h-312v-127h344v-146h-544zM1825 393v647h262l102 -395l101 395h262v-647h-164v494l-125 -494h-149l-125 494v-494h-164z M2654 715q0 156 88 248q88 88 246 88q164 0 250 -86q88 -92 88 -244q0 -115 -39 -186q-37 -72 -111 -113q-72 -41 -180 -41q-106 0 -180 35q-70 35 -117 110q-45 76 -45 189zM2855 715q0 -98 37 -142q37 -43 98 -43q63 0 100 43q35 41 35 150q0 92 -37 133q-37 43 -100 43 q-59 0 -96 -43t-37 -141z" />
<glyph unicode="&#xac;" d="M72 37v1364h3608v-1364h-3608zM256 223h3238v994h-3238v-994zM473 393v647h297q86 0 141 -24q51 -23 90 -68q16 -23 29.5 -49.5t22.5 -54.5q16 -61 16 -125q0 -104 -25 -162q-25 -57 -65 -96q-23 -18 -44.5 -31.5t-45.5 -19.5q-33 -10 -62.5 -13.5t-56.5 -3.5h-297z M672 539h49q33 0 54.5 4t35.5 10q27 16 41 49q14 31 14 113q0 102 -32 141q-35 37 -111 37h-51v-354zM1174 393v647h534v-139h-334v-102h312v-133h-312v-127h344v-146h-544zM1825 393v647h262l102 -395l101 395h262v-647h-164v494l-125 -494h-149l-125 494v-494h-164z M2654 715q0 156 88 248q88 88 246 88q164 0 250 -86q88 -92 88 -244q0 -115 -39 -186q-37 -72 -111 -113q-72 -41 -180 -41q-106 0 -180 35q-70 35 -117 110q-45 76 -45 189zM2855 715q0 -98 37 -142q37 -43 98 -43q63 0 100 43q35 41 35 150q0 92 -37 133q-37 43 -100 43 q-59 0 -96 -43t-37 -141z" />
<glyph unicode="&#xad;" d="M72 37v1364h3608v-1364h-3608zM256 223h3238v994h-3238v-994zM473 393v647h297q86 0 141 -24q51 -23 90 -68q16 -23 29.5 -49.5t22.5 -54.5q16 -61 16 -125q0 -104 -25 -162q-25 -57 -65 -96q-23 -18 -44.5 -31.5t-45.5 -19.5q-33 -10 -62.5 -13.5t-56.5 -3.5h-297z M672 539h49q33 0 54.5 4t35.5 10q27 16 41 49q14 31 14 113q0 102 -32 141q-35 37 -111 37h-51v-354zM1174 393v647h534v-139h-334v-102h312v-133h-312v-127h344v-146h-544zM1825 393v647h262l102 -395l101 395h262v-647h-164v494l-125 -494h-149l-125 494v-494h-164z M2654 715q0 156 88 248q88 88 246 88q164 0 250 -86q88 -92 88 -244q0 -115 -39 -186q-37 -72 -111 -113q-72 -41 -180 -41q-106 0 -180 35q-70 35 -117 110q-45 76 -45 189zM2855 715q0 -98 37 -142q37 -43 98 -43q63 0 100 43q35 41 35 150q0 92 -37 133q-37 43 -100 43 q-59 0 -96 -43t-37 -141z" />
<glyph unicode="&#xae;" d="M72 37v1364h3608v-1364h-3608zM256 223h3238v994h-3238v-994zM473 393v647h297q86 0 141 -24q51 -23 90 -68q16 -23 29.5 -49.5t22.5 -54.5q16 -61 16 -125q0 -104 -25 -162q-25 -57 -65 -96q-23 -18 -44.5 -31.5t-45.5 -19.5q-33 -10 -62.5 -13.5t-56.5 -3.5h-297z M672 539h49q33 0 54.5 4t35.5 10q27 16 41 49q14 31 14 113q0 102 -32 141q-35 37 -111 37h-51v-354zM1174 393v647h534v-139h-334v-102h312v-133h-312v-127h344v-146h-544zM1825 393v647h262l102 -395l101 395h262v-647h-164v494l-125 -494h-149l-125 494v-494h-164z M2654 715q0 156 88 248q88 88 246 88q164 0 250 -86q88 -92 88 -244q0 -115 -39 -186q-37 -72 -111 -113q-72 -41 -180 -41q-106 0 -180 35q-70 35 -117 110q-45 76 -45 189zM2855 715q0 -98 37 -142q37 -43 98 -43q63 0 100 43q35 41 35 150q0 92 -37 133q-37 43 -100 43 q-59 0 -96 -43t-37 -141z" />
<glyph unicode="&#xb0;" d="M72 37v1364h3608v-1364h-3608zM256 223h3238v994h-3238v-994zM473 393v647h297q86 0 141 -24q51 -23 90 -68q16 -23 29.5 -49.5t22.5 -54.5q16 -61 16 -125q0 -104 -25 -162q-25 -57 -65 -96q-23 -18 -44.5 -31.5t-45.5 -19.5q-33 -10 -62.5 -13.5t-56.5 -3.5h-297z M672 539h49q33 0 54.5 4t35.5 10q27 16 41 49q14 31 14 113q0 102 -32 141q-35 37 -111 37h-51v-354zM1174 393v647h534v-139h-334v-102h312v-133h-312v-127h344v-146h-544zM1825 393v647h262l102 -395l101 395h262v-647h-164v494l-125 -494h-149l-125 494v-494h-164z M2654 715q0 156 88 248q88 88 246 88q164 0 250 -86q88 -92 88 -244q0 -115 -39 -186q-37 -72 -111 -113q-72 -41 -180 -41q-106 0 -180 35q-70 35 -117 110q-45 76 -45 189zM2855 715q0 -98 37 -142q37 -43 98 -43q63 0 100 43q35 41 35 150q0 92 -37 133q-37 43 -100 43 q-59 0 -96 -43t-37 -141z" />
<glyph unicode="&#xb1;" d="M72 37v1364h3608v-1364h-3608zM256 223h3238v994h-3238v-994zM473 393v647h297q86 0 141 -24q51 -23 90 -68q16 -23 29.5 -49.5t22.5 -54.5q16 -61 16 -125q0 -104 -25 -162q-25 -57 -65 -96q-23 -18 -44.5 -31.5t-45.5 -19.5q-33 -10 -62.5 -13.5t-56.5 -3.5h-297z M672 539h49q33 0 54.5 4t35.5 10q27 16 41 49q14 31 14 113q0 102 -32 141q-35 37 -111 37h-51v-354zM1174 393v647h534v-139h-334v-102h312v-133h-312v-127h344v-146h-544zM1825 393v647h262l102 -395l101 395h262v-647h-164v494l-125 -494h-149l-125 494v-494h-164z M2654 715q0 156 88 248q88 88 246 88q164 0 250 -86q88 -92 88 -244q0 -115 -39 -186q-37 -72 -111 -113q-72 -41 -180 -41q-106 0 -180 35q-70 35 -117 110q-45 76 -45 189zM2855 715q0 -98 37 -142q37 -43 98 -43q63 0 100 43q35 41 35 150q0 92 -37 133q-37 43 -100 43 q-59 0 -96 -43t-37 -141z" />
<glyph unicode="&#xb5;" d="M72 37v1364h3608v-1364h-3608zM256 223h3238v994h-3238v-994zM473 393v647h297q86 0 141 -24q51 -23 90 -68q16 -23 29.5 -49.5t22.5 -54.5q16 -61 16 -125q0 -104 -25 -162q-25 -57 -65 -96q-23 -18 -44.5 -31.5t-45.5 -19.5q-33 -10 -62.5 -13.5t-56.5 -3.5h-297z M672 539h49q33 0 54.5 4t35.5 10q27 16 41 49q14 31 14 113q0 102 -32 141q-35 37 -111 37h-51v-354zM1174 393v647h534v-139h-334v-102h312v-133h-312v-127h344v-146h-544zM1825 393v647h262l102 -395l101 395h262v-647h-164v494l-125 -494h-149l-125 494v-494h-164z M2654 715q0 156 88 248q88 88 246 88q164 0 250 -86q88 -92 88 -244q0 -115 -39 -186q-37 -72 -111 -113q-72 -41 -180 -41q-106 0 -180 35q-70 35 -117 110q-45 76 -45 189zM2855 715q0 -98 37 -142q37 -43 98 -43q63 0 100 43q35 41 35 150q0 92 -37 133q-37 43 -100 43 q-59 0 -96 -43t-37 -141z" />
<glyph unicode="&#xb6;" d="M72 37v1364h3608v-1364h-3608zM256 223h3238v994h-3238v-994zM473 393v647h297q86 0 141 -24q51 -23 90 -68q16 -23 29.5 -49.5t22.5 -54.5q16 -61 16 -125q0 -104 -25 -162q-25 -57 -65 -96q-23 -18 -44.5 -31.5t-45.5 -19.5q-33 -10 -62.5 -13.5t-56.5 -3.5h-297z M672 539h49q33 0 54.5 4t35.5 10q27 16 41 49q14 31 14 113q0 102 -32 141q-35 37 -111 37h-51v-354zM1174 393v647h534v-139h-334v-102h312v-133h-312v-127h344v-146h-544zM1825 393v647h262l102 -395l101 395h262v-647h-164v494l-125 -494h-149l-125 494v-494h-164z M2654 715q0 156 88 248q88 88 246 88q164 0 250 -86q88 -92 88 -244q0 -115 -39 -186q-37 -72 -111 -113q-72 -41 -180 -41q-106 0 -180 35q-70 35 -117 110q-45 76 -45 189zM2855 715q0 -98 37 -142q37 -43 98 -43q63 0 100 43q35 41 35 150q0 92 -37 133q-37 43 -100 43 q-59 0 -96 -43t-37 -141z" />
<glyph unicode="&#xb7;" d="M72 37v1364h3608v-1364h-3608zM256 223h3238v994h-3238v-994zM473 393v647h297q86 0 141 -24q51 -23 90 -68q16 -23 29.5 -49.5t22.5 -54.5q16 -61 16 -125q0 -104 -25 -162q-25 -57 -65 -96q-23 -18 -44.5 -31.5t-45.5 -19.5q-33 -10 -62.5 -13.5t-56.5 -3.5h-297z M672 539h49q33 0 54.5 4t35.5 10q27 16 41 49q14 31 14 113q0 102 -32 141q-35 37 -111 37h-51v-354zM1174 393v647h534v-139h-334v-102h312v-133h-312v-127h344v-146h-544zM1825 393v647h262l102 -395l101 395h262v-647h-164v494l-125 -494h-149l-125 494v-494h-164z M2654 715q0 156 88 248q88 88 246 88q164 0 250 -86q88 -92 88 -244q0 -115 -39 -186q-37 -72 -111 -113q-72 -41 -180 -41q-106 0 -180 35q-70 35 -117 110q-45 76 -45 189zM2855 715q0 -98 37 -142q37 -43 98 -43q63 0 100 43q35 41 35 150q0 92 -37 133q-37 43 -100 43 q-59 0 -96 -43t-37 -141z" />
<glyph unicode="&#xba;" d="M72 37v1364h3608v-1364h-3608zM256 223h3238v994h-3238v-994zM473 393v647h297q86 0 141 -24q51 -23 90 -68q16 -23 29.5 -49.5t22.5 -54.5q16 -61 16 -125q0 -104 -25 -162q-25 -57 -65 -96q-23 -18 -44.5 -31.5t-45.5 -19.5q-33 -10 -62.5 -13.5t-56.5 -3.5h-297z M672 539h49q33 0 54.5 4t35.5 10q27 16 41 49q14 31 14 113q0 102 -32 141q-35 37 -111 37h-51v-354zM1174 393v647h534v-139h-334v-102h312v-133h-312v-127h344v-146h-544zM1825 393v647h262l102 -395l101 395h262v-647h-164v494l-125 -494h-149l-125 494v-494h-164z M2654 715q0 156 88 248q88 88 246 88q164 0 250 -86q88 -92 88 -244q0 -115 -39 -186q-37 -72 -111 -113q-72 -41 -180 -41q-106 0 -180 35q-70 35 -117 110q-45 76 -45 189zM2855 715q0 -98 37 -142q37 -43 98 -43q63 0 100 43q35 41 35 150q0 92 -37 133q-37 43 -100 43 q-59 0 -96 -43t-37 -141z" />
<glyph unicode="&#xbb;" d="M72 37v1364h3608v-1364h-3608zM256 223h3238v994h-3238v-994zM473 393v647h297q86 0 141 -24q51 -23 90 -68q16 -23 29.5 -49.5t22.5 -54.5q16 -61 16 -125q0 -104 -25 -162q-25 -57 -65 -96q-23 -18 -44.5 -31.5t-45.5 -19.5q-33 -10 -62.5 -13.5t-56.5 -3.5h-297z M672 539h49q33 0 54.5 4t35.5 10q27 16 41 49q14 31 14 113q0 102 -32 141q-35 37 -111 37h-51v-354zM1174 393v647h534v-139h-334v-102h312v-133h-312v-127h344v-146h-544zM1825 393v647h262l102 -395l101 395h262v-647h-164v494l-125 -494h-149l-125 494v-494h-164z M2654 715q0 156 88 248q88 88 246 88q164 0 250 -86q88 -92 88 -244q0 -115 -39 -186q-37 -72 -111 -113q-72 -41 -180 -41q-106 0 -180 35q-70 35 -117 110q-45 76 -45 189zM2855 715q0 -98 37 -142q37 -43 98 -43q63 0 100 43q35 41 35 150q0 92 -37 133q-37 43 -100 43 q-59 0 -96 -43t-37 -141z" />
<glyph unicode="&#xbf;" d="M72 37v1364h3608v-1364h-3608zM256 223h3238v994h-3238v-994zM473 393v647h297q86 0 141 -24q51 -23 90 -68q16 -23 29.5 -49.5t22.5 -54.5q16 -61 16 -125q0 -104 -25 -162q-25 -57 -65 -96q-23 -18 -44.5 -31.5t-45.5 -19.5q-33 -10 -62.5 -13.5t-56.5 -3.5h-297z M672 539h49q33 0 54.5 4t35.5 10q27 16 41 49q14 31 14 113q0 102 -32 141q-35 37 -111 37h-51v-354zM1174 393v647h534v-139h-334v-102h312v-133h-312v-127h344v-146h-544zM1825 393v647h262l102 -395l101 395h262v-647h-164v494l-125 -494h-149l-125 494v-494h-164z M2654 715q0 156 88 248q88 88 246 88q164 0 250 -86q88 -92 88 -244q0 -115 -39 -186q-37 -72 -111 -113q-72 -41 -180 -41q-106 0 -180 35q-70 35 -117 110q-45 76 -45 189zM2855 715q0 -98 37 -142q37 -43 98 -43q63 0 100 43q35 41 35 150q0 92 -37 133q-37 43 -100 43 q-59 0 -96 -43t-37 -141z" />
<glyph unicode="&#xd7;" d="M72 37v1364h3608v-1364h-3608zM256 223h3238v994h-3238v-994zM473 393v647h297q86 0 141 -24q51 -23 90 -68q16 -23 29.5 -49.5t22.5 -54.5q16 -61 16 -125q0 -104 -25 -162q-25 -57 -65 -96q-23 -18 -44.5 -31.5t-45.5 -19.5q-33 -10 -62.5 -13.5t-56.5 -3.5h-297z M672 539h49q33 0 54.5 4t35.5 10q27 16 41 49q14 31 14 113q0 102 -32 141q-35 37 -111 37h-51v-354zM1174 393v647h534v-139h-334v-102h312v-133h-312v-127h344v-146h-544zM1825 393v647h262l102 -395l101 395h262v-647h-164v494l-125 -494h-149l-125 494v-494h-164z M2654 715q0 156 88 248q88 88 246 88q164 0 250 -86q88 -92 88 -244q0 -115 -39 -186q-37 -72 -111 -113q-72 -41 -180 -41q-106 0 -180 35q-70 35 -117 110q-45 76 -45 189zM2855 715q0 -98 37 -142q37 -43 98 -43q63 0 100 43q35 41 35 150q0 92 -37 133q-37 43 -100 43 q-59 0 -96 -43t-37 -141z" />
<glyph unicode="&#xf7;" d="M72 37v1364h3608v-1364h-3608zM256 223h3238v994h-3238v-994zM473 393v647h297q86 0 141 -24q51 -23 90 -68q16 -23 29.5 -49.5t22.5 -54.5q16 -61 16 -125q0 -104 -25 -162q-25 -57 -65 -96q-23 -18 -44.5 -31.5t-45.5 -19.5q-33 -10 -62.5 -13.5t-56.5 -3.5h-297z M672 539h49q33 0 54.5 4t35.5 10q27 16 41 49q14 31 14 113q0 102 -32 141q-35 37 -111 37h-51v-354zM1174 393v647h534v-139h-334v-102h312v-133h-312v-127h344v-146h-544zM1825 393v647h262l102 -395l101 395h262v-647h-164v494l-125 -494h-149l-125 494v-494h-164z M2654 715q0 156 88 248q88 88 246 88q164 0 250 -86q88 -92 88 -244q0 -115 -39 -186q-37 -72 -111 -113q-72 -41 -180 -41q-106 0 -180 35q-70 35 -117 110q-45 76 -45 189zM2855 715q0 -98 37 -142q37 -43 98 -43q63 0 100 43q35 41 35 150q0 92 -37 133q-37 43 -100 43 q-59 0 -96 -43t-37 -141z" />
<glyph unicode="&#xfe;" d="M72 37v1364h3608v-1364h-3608zM256 223h3238v994h-3238v-994zM473 393v647h297q86 0 141 -24q51 -23 90 -68q16 -23 29.5 -49.5t22.5 -54.5q16 -61 16 -125q0 -104 -25 -162q-25 -57 -65 -96q-23 -18 -44.5 -31.5t-45.5 -19.5q-33 -10 -62.5 -13.5t-56.5 -3.5h-297z M672 539h49q33 0 54.5 4t35.5 10q27 16 41 49q14 31 14 113q0 102 -32 141q-35 37 -111 37h-51v-354zM1174 393v647h534v-139h-334v-102h312v-133h-312v-127h344v-146h-544zM1825 393v647h262l102 -395l101 395h262v-647h-164v494l-125 -494h-149l-125 494v-494h-164z M2654 715q0 156 88 248q88 88 246 88q164 0 250 -86q88 -92 88 -244q0 -115 -39 -186q-37 -72 -111 -113q-72 -41 -180 -41q-106 0 -180 35q-70 35 -117 110q-45 76 -45 189zM2855 715q0 -98 37 -142q37 -43 98 -43q63 0 100 43q35 41 35 150q0 92 -37 133q-37 43 -100 43 q-59 0 -96 -43t-37 -141z" />
<glyph unicode="&#x2000;" horiz-adv-x="877" />
<glyph unicode="&#x2001;" horiz-adv-x="1755" />
<glyph unicode="&#x2002;" horiz-adv-x="877" />
<glyph unicode="&#x2003;" horiz-adv-x="1755" />
<glyph unicode="&#x2004;" horiz-adv-x="585" />
<glyph unicode="&#x2005;" horiz-adv-x="438" />
<glyph unicode="&#x2006;" horiz-adv-x="292" />
<glyph unicode="&#x2007;" horiz-adv-x="292" />
<glyph unicode="&#x2008;" horiz-adv-x="219" />
<glyph unicode="&#x2009;" horiz-adv-x="351" />
<glyph unicode="&#x200a;" horiz-adv-x="97" />
<glyph unicode="&#x2010;" d="M72 37v1364h3608v-1364h-3608zM256 223h3238v994h-3238v-994zM473 393v647h297q86 0 141 -24q51 -23 90 -68q16 -23 29.5 -49.5t22.5 -54.5q16 -61 16 -125q0 -104 -25 -162q-25 -57 -65 -96q-23 -18 -44.5 -31.5t-45.5 -19.5q-33 -10 -62.5 -13.5t-56.5 -3.5h-297z M672 539h49q33 0 54.5 4t35.5 10q27 16 41 49q14 31 14 113q0 102 -32 141q-35 37 -111 37h-51v-354zM1174 393v647h534v-139h-334v-102h312v-133h-312v-127h344v-146h-544zM1825 393v647h262l102 -395l101 395h262v-647h-164v494l-125 -494h-149l-125 494v-494h-164z M2654 715q0 156 88 248q88 88 246 88q164 0 250 -86q88 -92 88 -244q0 -115 -39 -186q-37 -72 -111 -113q-72 -41 -180 -41q-106 0 -180 35q-70 35 -117 110q-45 76 -45 189zM2855 715q0 -98 37 -142q37 -43 98 -43q63 0 100 43q35 41 35 150q0 92 -37 133q-37 43 -100 43 q-59 0 -96 -43t-37 -141z" />
<glyph unicode="&#x2011;" d="M72 37v1364h3608v-1364h-3608zM256 223h3238v994h-3238v-994zM473 393v647h297q86 0 141 -24q51 -23 90 -68q16 -23 29.5 -49.5t22.5 -54.5q16 -61 16 -125q0 -104 -25 -162q-25 -57 -65 -96q-23 -18 -44.5 -31.5t-45.5 -19.5q-33 -10 -62.5 -13.5t-56.5 -3.5h-297z M672 539h49q33 0 54.5 4t35.5 10q27 16 41 49q14 31 14 113q0 102 -32 141q-35 37 -111 37h-51v-354zM1174 393v647h534v-139h-334v-102h312v-133h-312v-127h344v-146h-544zM1825 393v647h262l102 -395l101 395h262v-647h-164v494l-125 -494h-149l-125 494v-494h-164z M2654 715q0 156 88 248q88 88 246 88q164 0 250 -86q88 -92 88 -244q0 -115 -39 -186q-37 -72 -111 -113q-72 -41 -180 -41q-106 0 -180 35q-70 35 -117 110q-45 76 -45 189zM2855 715q0 -98 37 -142q37 -43 98 -43q63 0 100 43q35 41 35 150q0 92 -37 133q-37 43 -100 43 q-59 0 -96 -43t-37 -141z" />
<glyph unicode="&#x2012;" d="M72 37v1364h3608v-1364h-3608zM256 223h3238v994h-3238v-994zM473 393v647h297q86 0 141 -24q51 -23 90 -68q16 -23 29.5 -49.5t22.5 -54.5q16 -61 16 -125q0 -104 -25 -162q-25 -57 -65 -96q-23 -18 -44.5 -31.5t-45.5 -19.5q-33 -10 -62.5 -13.5t-56.5 -3.5h-297z M672 539h49q33 0 54.5 4t35.5 10q27 16 41 49q14 31 14 113q0 102 -32 141q-35 37 -111 37h-51v-354zM1174 393v647h534v-139h-334v-102h312v-133h-312v-127h344v-146h-544zM1825 393v647h262l102 -395l101 395h262v-647h-164v494l-125 -494h-149l-125 494v-494h-164z M2654 715q0 156 88 248q88 88 246 88q164 0 250 -86q88 -92 88 -244q0 -115 -39 -186q-37 -72 -111 -113q-72 -41 -180 -41q-106 0 -180 35q-70 35 -117 110q-45 76 -45 189zM2855 715q0 -98 37 -142q37 -43 98 -43q63 0 100 43q35 41 35 150q0 92 -37 133q-37 43 -100 43 q-59 0 -96 -43t-37 -141z" />
<glyph unicode="&#x2013;" d="M72 37v1364h3608v-1364h-3608zM256 223h3238v994h-3238v-994zM473 393v647h297q86 0 141 -24q51 -23 90 -68q16 -23 29.5 -49.5t22.5 -54.5q16 -61 16 -125q0 -104 -25 -162q-25 -57 -65 -96q-23 -18 -44.5 -31.5t-45.5 -19.5q-33 -10 -62.5 -13.5t-56.5 -3.5h-297z M672 539h49q33 0 54.5 4t35.5 10q27 16 41 49q14 31 14 113q0 102 -32 141q-35 37 -111 37h-51v-354zM1174 393v647h534v-139h-334v-102h312v-133h-312v-127h344v-146h-544zM1825 393v647h262l102 -395l101 395h262v-647h-164v494l-125 -494h-149l-125 494v-494h-164z M2654 715q0 156 88 248q88 88 246 88q164 0 250 -86q88 -92 88 -244q0 -115 -39 -186q-37 -72 -111 -113q-72 -41 -180 -41q-106 0 -180 35q-70 35 -117 110q-45 76 -45 189zM2855 715q0 -98 37 -142q37 -43 98 -43q63 0 100 43q35 41 35 150q0 92 -37 133q-37 43 -100 43 q-59 0 -96 -43t-37 -141z" />
<glyph unicode="&#x2014;" d="M72 37v1364h3608v-1364h-3608zM256 223h3238v994h-3238v-994zM473 393v647h297q86 0 141 -24q51 -23 90 -68q16 -23 29.5 -49.5t22.5 -54.5q16 -61 16 -125q0 -104 -25 -162q-25 -57 -65 -96q-23 -18 -44.5 -31.5t-45.5 -19.5q-33 -10 -62.5 -13.5t-56.5 -3.5h-297z M672 539h49q33 0 54.5 4t35.5 10q27 16 41 49q14 31 14 113q0 102 -32 141q-35 37 -111 37h-51v-354zM1174 393v647h534v-139h-334v-102h312v-133h-312v-127h344v-146h-544zM1825 393v647h262l102 -395l101 395h262v-647h-164v494l-125 -494h-149l-125 494v-494h-164z M2654 715q0 156 88 248q88 88 246 88q164 0 250 -86q88 -92 88 -244q0 -115 -39 -186q-37 -72 -111 -113q-72 -41 -180 -41q-106 0 -180 35q-70 35 -117 110q-45 76 -45 189zM2855 715q0 -98 37 -142q37 -43 98 -43q63 0 100 43q35 41 35 150q0 92 -37 133q-37 43 -100 43 q-59 0 -96 -43t-37 -141z" />
<glyph unicode="&#x2018;" d="M72 37v1364h3608v-1364h-3608zM256 223h3238v994h-3238v-994zM473 393v647h297q86 0 141 -24q51 -23 90 -68q16 -23 29.5 -49.5t22.5 -54.5q16 -61 16 -125q0 -104 -25 -162q-25 -57 -65 -96q-23 -18 -44.5 -31.5t-45.5 -19.5q-33 -10 -62.5 -13.5t-56.5 -3.5h-297z M672 539h49q33 0 54.5 4t35.5 10q27 16 41 49q14 31 14 113q0 102 -32 141q-35 37 -111 37h-51v-354zM1174 393v647h534v-139h-334v-102h312v-133h-312v-127h344v-146h-544zM1825 393v647h262l102 -395l101 395h262v-647h-164v494l-125 -494h-149l-125 494v-494h-164z M2654 715q0 156 88 248q88 88 246 88q164 0 250 -86q88 -92 88 -244q0 -115 -39 -186q-37 -72 -111 -113q-72 -41 -180 -41q-106 0 -180 35q-70 35 -117 110q-45 76 -45 189zM2855 715q0 -98 37 -142q37 -43 98 -43q63 0 100 43q35 41 35 150q0 92 -37 133q-37 43 -100 43 q-59 0 -96 -43t-37 -141z" />
<glyph unicode="&#x2019;" d="M72 37v1364h3608v-1364h-3608zM256 223h3238v994h-3238v-994zM473 393v647h297q86 0 141 -24q51 -23 90 -68q16 -23 29.5 -49.5t22.5 -54.5q16 -61 16 -125q0 -104 -25 -162q-25 -57 -65 -96q-23 -18 -44.5 -31.5t-45.5 -19.5q-33 -10 -62.5 -13.5t-56.5 -3.5h-297z M672 539h49q33 0 54.5 4t35.5 10q27 16 41 49q14 31 14 113q0 102 -32 141q-35 37 -111 37h-51v-354zM1174 393v647h534v-139h-334v-102h312v-133h-312v-127h344v-146h-544zM1825 393v647h262l102 -395l101 395h262v-647h-164v494l-125 -494h-149l-125 494v-494h-164z M2654 715q0 156 88 248q88 88 246 88q164 0 250 -86q88 -92 88 -244q0 -115 -39 -186q-37 -72 -111 -113q-72 -41 -180 -41q-106 0 -180 35q-70 35 -117 110q-45 76 -45 189zM2855 715q0 -98 37 -142q37 -43 98 -43q63 0 100 43q35 41 35 150q0 92 -37 133q-37 43 -100 43 q-59 0 -96 -43t-37 -141z" />
<glyph unicode="&#x201a;" d="M72 37v1364h3608v-1364h-3608zM256 223h3238v994h-3238v-994zM473 393v647h297q86 0 141 -24q51 -23 90 -68q16 -23 29.5 -49.5t22.5 -54.5q16 -61 16 -125q0 -104 -25 -162q-25 -57 -65 -96q-23 -18 -44.5 -31.5t-45.5 -19.5q-33 -10 -62.5 -13.5t-56.5 -3.5h-297z M672 539h49q33 0 54.5 4t35.5 10q27 16 41 49q14 31 14 113q0 102 -32 141q-35 37 -111 37h-51v-354zM1174 393v647h534v-139h-334v-102h312v-133h-312v-127h344v-146h-544zM1825 393v647h262l102 -395l101 395h262v-647h-164v494l-125 -494h-149l-125 494v-494h-164z M2654 715q0 156 88 248q88 88 246 88q164 0 250 -86q88 -92 88 -244q0 -115 -39 -186q-37 -72 -111 -113q-72 -41 -180 -41q-106 0 -180 35q-70 35 -117 110q-45 76 -45 189zM2855 715q0 -98 37 -142q37 -43 98 -43q63 0 100 43q35 41 35 150q0 92 -37 133q-37 43 -100 43 q-59 0 -96 -43t-37 -141z" />
<glyph unicode="&#x201c;" d="M72 37v1364h3608v-1364h-3608zM256 223h3238v994h-3238v-994zM473 393v647h297q86 0 141 -24q51 -23 90 -68q16 -23 29.5 -49.5t22.5 -54.5q16 -61 16 -125q0 -104 -25 -162q-25 -57 -65 -96q-23 -18 -44.5 -31.5t-45.5 -19.5q-33 -10 -62.5 -13.5t-56.5 -3.5h-297z M672 539h49q33 0 54.5 4t35.5 10q27 16 41 49q14 31 14 113q0 102 -32 141q-35 37 -111 37h-51v-354zM1174 393v647h534v-139h-334v-102h312v-133h-312v-127h344v-146h-544zM1825 393v647h262l102 -395l101 395h262v-647h-164v494l-125 -494h-149l-125 494v-494h-164z M2654 715q0 156 88 248q88 88 246 88q164 0 250 -86q88 -92 88 -244q0 -115 -39 -186q-37 -72 -111 -113q-72 -41 -180 -41q-106 0 -180 35q-70 35 -117 110q-45 76 -45 189zM2855 715q0 -98 37 -142q37 -43 98 -43q63 0 100 43q35 41 35 150q0 92 -37 133q-37 43 -100 43 q-59 0 -96 -43t-37 -141z" />
<glyph unicode="&#x201d;" d="M72 37v1364h3608v-1364h-3608zM256 223h3238v994h-3238v-994zM473 393v647h297q86 0 141 -24q51 -23 90 -68q16 -23 29.5 -49.5t22.5 -54.5q16 -61 16 -125q0 -104 -25 -162q-25 -57 -65 -96q-23 -18 -44.5 -31.5t-45.5 -19.5q-33 -10 -62.5 -13.5t-56.5 -3.5h-297z M672 539h49q33 0 54.5 4t35.5 10q27 16 41 49q14 31 14 113q0 102 -32 141q-35 37 -111 37h-51v-354zM1174 393v647h534v-139h-334v-102h312v-133h-312v-127h344v-146h-544zM1825 393v647h262l102 -395l101 395h262v-647h-164v494l-125 -494h-149l-125 494v-494h-164z M2654 715q0 156 88 248q88 88 246 88q164 0 250 -86q88 -92 88 -244q0 -115 -39 -186q-37 -72 -111 -113q-72 -41 -180 -41q-106 0 -180 35q-70 35 -117 110q-45 76 -45 189zM2855 715q0 -98 37 -142q37 -43 98 -43q63 0 100 43q35 41 35 150q0 92 -37 133q-37 43 -100 43 q-59 0 -96 -43t-37 -141z" />
<glyph unicode="&#x201e;" d="M72 37v1364h3608v-1364h-3608zM256 223h3238v994h-3238v-994zM473 393v647h297q86 0 141 -24q51 -23 90 -68q16 -23 29.5 -49.5t22.5 -54.5q16 -61 16 -125q0 -104 -25 -162q-25 -57 -65 -96q-23 -18 -44.5 -31.5t-45.5 -19.5q-33 -10 -62.5 -13.5t-56.5 -3.5h-297z M672 539h49q33 0 54.5 4t35.5 10q27 16 41 49q14 31 14 113q0 102 -32 141q-35 37 -111 37h-51v-354zM1174 393v647h534v-139h-334v-102h312v-133h-312v-127h344v-146h-544zM1825 393v647h262l102 -395l101 395h262v-647h-164v494l-125 -494h-149l-125 494v-494h-164z M2654 715q0 156 88 248q88 88 246 88q164 0 250 -86q88 -92 88 -244q0 -115 -39 -186q-37 -72 -111 -113q-72 -41 -180 -41q-106 0 -180 35q-70 35 -117 110q-45 76 -45 189zM2855 715q0 -98 37 -142q37 -43 98 -43q63 0 100 43q35 41 35 150q0 92 -37 133q-37 43 -100 43 q-59 0 -96 -43t-37 -141z" />
<glyph unicode="&#x2022;" d="M72 37v1364h3608v-1364h-3608zM256 223h3238v994h-3238v-994zM473 393v647h297q86 0 141 -24q51 -23 90 -68q16 -23 29.5 -49.5t22.5 -54.5q16 -61 16 -125q0 -104 -25 -162q-25 -57 -65 -96q-23 -18 -44.5 -31.5t-45.5 -19.5q-33 -10 -62.5 -13.5t-56.5 -3.5h-297z M672 539h49q33 0 54.5 4t35.5 10q27 16 41 49q14 31 14 113q0 102 -32 141q-35 37 -111 37h-51v-354zM1174 393v647h534v-139h-334v-102h312v-133h-312v-127h344v-146h-544zM1825 393v647h262l102 -395l101 395h262v-647h-164v494l-125 -494h-149l-125 494v-494h-164z M2654 715q0 156 88 248q88 88 246 88q164 0 250 -86q88 -92 88 -244q0 -115 -39 -186q-37 -72 -111 -113q-72 -41 -180 -41q-106 0 -180 35q-70 35 -117 110q-45 76 -45 189zM2855 715q0 -98 37 -142q37 -43 98 -43q63 0 100 43q35 41 35 150q0 92 -37 133q-37 43 -100 43 q-59 0 -96 -43t-37 -141z" />
<glyph unicode="&#x2026;" d="M72 37v1364h3608v-1364h-3608zM256 223h3238v994h-3238v-994zM473 393v647h297q86 0 141 -24q51 -23 90 -68q16 -23 29.5 -49.5t22.5 -54.5q16 -61 16 -125q0 -104 -25 -162q-25 -57 -65 -96q-23 -18 -44.5 -31.5t-45.5 -19.5q-33 -10 -62.5 -13.5t-56.5 -3.5h-297z M672 539h49q33 0 54.5 4t35.5 10q27 16 41 49q14 31 14 113q0 102 -32 141q-35 37 -111 37h-51v-354zM1174 393v647h534v-139h-334v-102h312v-133h-312v-127h344v-146h-544zM1825 393v647h262l102 -395l101 395h262v-647h-164v494l-125 -494h-149l-125 494v-494h-164z M2654 715q0 156 88 248q88 88 246 88q164 0 250 -86q88 -92 88 -244q0 -115 -39 -186q-37 -72 -111 -113q-72 -41 -180 -41q-106 0 -180 35q-70 35 -117 110q-45 76 -45 189zM2855 715q0 -98 37 -142q37 -43 98 -43q63 0 100 43q35 41 35 150q0 92 -37 133q-37 43 -100 43 q-59 0 -96 -43t-37 -141z" />
<glyph unicode="&#x202f;" horiz-adv-x="351" />
<glyph unicode="&#x2039;" d="M72 37v1364h3608v-1364h-3608zM256 223h3238v994h-3238v-994zM473 393v647h297q86 0 141 -24q51 -23 90 -68q16 -23 29.5 -49.5t22.5 -54.5q16 -61 16 -125q0 -104 -25 -162q-25 -57 -65 -96q-23 -18 -44.5 -31.5t-45.5 -19.5q-33 -10 -62.5 -13.5t-56.5 -3.5h-297z M672 539h49q33 0 54.5 4t35.5 10q27 16 41 49q14 31 14 113q0 102 -32 141q-35 37 -111 37h-51v-354zM1174 393v647h534v-139h-334v-102h312v-133h-312v-127h344v-146h-544zM1825 393v647h262l102 -395l101 395h262v-647h-164v494l-125 -494h-149l-125 494v-494h-164z M2654 715q0 156 88 248q88 88 246 88q164 0 250 -86q88 -92 88 -244q0 -115 -39 -186q-37 -72 -111 -113q-72 -41 -180 -41q-106 0 -180 35q-70 35 -117 110q-45 76 -45 189zM2855 715q0 -98 37 -142q37 -43 98 -43q63 0 100 43q35 41 35 150q0 92 -37 133q-37 43 -100 43 q-59 0 -96 -43t-37 -141z" />
<glyph unicode="&#x203a;" d="M72 37v1364h3608v-1364h-3608zM256 223h3238v994h-3238v-994zM473 393v647h297q86 0 141 -24q51 -23 90 -68q16 -23 29.5 -49.5t22.5 -54.5q16 -61 16 -125q0 -104 -25 -162q-25 -57 -65 -96q-23 -18 -44.5 -31.5t-45.5 -19.5q-33 -10 -62.5 -13.5t-56.5 -3.5h-297z M672 539h49q33 0 54.5 4t35.5 10q27 16 41 49q14 31 14 113q0 102 -32 141q-35 37 -111 37h-51v-354zM1174 393v647h534v-139h-334v-102h312v-133h-312v-127h344v-146h-544zM1825 393v647h262l102 -395l101 395h262v-647h-164v494l-125 -494h-149l-125 494v-494h-164z M2654 715q0 156 88 248q88 88 246 88q164 0 250 -86q88 -92 88 -244q0 -115 -39 -186q-37 -72 -111 -113q-72 -41 -180 -41q-106 0 -180 35q-70 35 -117 110q-45 76 -45 189zM2855 715q0 -98 37 -142q37 -43 98 -43q63 0 100 43q35 41 35 150q0 92 -37 133q-37 43 -100 43 q-59 0 -96 -43t-37 -141z" />
<glyph unicode="&#x205f;" horiz-adv-x="438" />
<glyph unicode="&#x2122;" d="M72 37v1364h3608v-1364h-3608zM256 223h3238v994h-3238v-994zM473 393v647h297q86 0 141 -24q51 -23 90 -68q16 -23 29.5 -49.5t22.5 -54.5q16 -61 16 -125q0 -104 -25 -162q-25 -57 -65 -96q-23 -18 -44.5 -31.5t-45.5 -19.5q-33 -10 -62.5 -13.5t-56.5 -3.5h-297z M672 539h49q33 0 54.5 4t35.5 10q27 16 41 49q14 31 14 113q0 102 -32 141q-35 37 -111 37h-51v-354zM1174 393v647h534v-139h-334v-102h312v-133h-312v-127h344v-146h-544zM1825 393v647h262l102 -395l101 395h262v-647h-164v494l-125 -494h-149l-125 494v-494h-164z M2654 715q0 156 88 248q88 88 246 88q164 0 250 -86q88 -92 88 -244q0 -115 -39 -186q-37 -72 -111 -113q-72 -41 -180 -41q-106 0 -180 35q-70 35 -117 110q-45 76 -45 189zM2855 715q0 -98 37 -142q37 -43 98 -43q63 0 100 43q35 41 35 150q0 92 -37 133q-37 43 -100 43 q-59 0 -96 -43t-37 -141z" />
<glyph unicode="&#x25fc;" horiz-adv-x="901" d="M0 0v901h901v-901h-901z" />
</font>
</defs>
</svg>
